<svg version="1" xmlns="http://www.w3.org/2000/svg" width="642.667" height="642.667" viewBox="0 0 482.000000 482.000000"><path d="M213.2 44.4c-3.1 3.5-6.5 12.1-7.1 17.8-.2 2-4.3 2.9-7.7 1.8-3-1-3.3-1.4-2.2-2.8 1.1-1.3 1-1.5-1-1-1.3.4-2 .2-1.6-.4.4-.6 2.3-.7 4.8-.4 3.7.6 3.9.6 2.1-.7-1.9-1.4-1.9-1.6-.1-5.8 3.3-8 3.6-8.9 2.6-8.9-.5 0-1.2.9-1.5 2-.3 1.1-1 2-1.5 2s-.7-.8-.3-1.8c.5-1.4.3-1.5-.8-.5-2 1.9-3.3 1.6-1.8-.4 1.3-1.7 1.3-1.7-1-.2-3 1.9-4.2 4.5-1.7 3.6.9-.4 1.6-.1 1.6.5s-1.1.8-3 .5c-2.5-.5-3.3-.2-4.6 1.9-1 1.5-2 2.1-2.4 1.4-.3-.5-1.9 1.9-3.5 5.5-1.6 3.5-3.2 6-3.5 5.5-.3-.5-.6.6-.7 2.6l-.1 3.5 2.3-2.5 2.3-2.4.7 6.1c.5 4.7 1.4 7.2 4 10.7 1.8 2.5 3.4 4.8 3.4 5.2.5 2.5 1.9 4.3 5.9 7.4 3.4 2.6 4 3.4 2.5 3.4-1.1 0-2.6-.7-3.3-1.5-1.7-2.1-13-11.8-13-11.2 0 .2 1.3 2 3 3.8 1.6 1.9 2.8 3.8 2.7 4.4-.6 1.8-3.2 1.6-5.5-.5-1.2-1.1-2.2-1.6-2.2-1 0 .6.7 1.3 1.5 1.6.8.4 1.5 1 1.5 1.5s-.7.9-1.5.9-1.5.5-1.5 1.1c0 .8-.5.8-1.5-.1-1.8-1.5-2 .1-.2 1.9 1 1 .8 1.2-.8.9-2.5-.4-6.1-7-6.9-12.3-.3-2.2-1-5.4-1.5-7-.7-2.4-.9-2.6-1-.8-.1 3.3-1.2 5.4-2.4 4.6-1.5-.9-.1 15.5 1.5 17.4.9 1.1.9 1.6-.3 2.4-2.1 1.3-2.7 1.1-4.1-1.1-1.4-2.3-3-2.7-2.2-.6.7 1.7-2.3 2.9-3.3 1.3-.9-1.4-2-3.3-5.6-9.9-1.5-2.8-2.8-4.3-3.1-3.5-.5.9-.7.9-1.2-.1-.9-1.9-3.4 3.3-3.4 6.9 0 1.6-.6 2.9-1.2 3-.7 0-.3.4 1 .9 3.4 1.4 2.6 3.7-1 3.1-2.3-.3-.2 6.4 4.2 13.7 2.8 4.6 5 8.5 5 8.7 0 .1 1.3 1.7 2.9 3.4 4.4 4.7 5.6 15 1.6 13.4-1.1-.4-1.3-.1-.9 1.1.3.9 1 1.6 1.5 1.6s.9.7.9 1.6c0 1.2-.7 1.4-3.2 1-3.1-.6-3.1-.5-.9.6 2 1 2.2 1.7 1.8 5.2-.3 2.2-1.1 4.2-1.6 4.4-.6.2-1.1.8-1.1 1.4 0 .6.7.8 1.5.5 1.6-.7 2.5 2.7 2.8 10.5.1 3.4-.3 5.2-1.8 6.9-2 2.2-2 2.2 0 1.5 1.1-.5 5.3-1.3 9.3-1.9 6.3-.9 7.5-1.4 8.3-3.4.8-2.1 1.4-2.3 9.1-2.3 6.2 0 9.2.5 12.5 2.1 5.5 2.7 10.6 8.9 7.3 8.9-.6 0-1.5-1.1-2-2.4-1-2.6-5.9-6-10.4-7-3-.7-17.1.4-14.8 1.1 1.8.7 1.5 2.1-.5 2.6-1 .3 0 .5 2.2.6 2.2.1 5.8.6 8 1.2s5.6 1.4 7.5 1.8c1.9.4 4.5 1.3 5.6 1.9 2.5 1.3 4.9 6.5 4 8.7-.3.9-.2 1.3.4 1 .6-.3 1-1.4 1-2.4 0-2.3 3.9-3.5 4.7-1.5.3.8 1.1 1.3 1.8 1 1.7-.6 3.2.6 4.5 3.4.8 2.1.9 1.9.4-1.6-.5-4.2-.5-4.2 5.2-8.3 3.2-2.3 8-4.8 10.8-5.6 6.3-1.9 16.9-1.9 22.7-.1 2.4.8 5.6 1.7 7.2 2 1.5.4 2.7 1.3 2.7 2.2 0 .8.6 1.7 1.4 2 .7.3 1.4 1.7 1.4 3.2.3 5.6.7 7.2 1.9 7.2 2.1 0 2.6-2.1.9-3.9-2.2-2.5-2-4.1.7-4.1 1.7 0 1.9-.2.7-.9-.8-.6-1.7-.8-2-.6-1.5.9-3.6-5.5-3.9-11.3-.3-5.9-.2-6.3 1.6-5.4 3.7 2.1 5.1 3.8 5.7 7 .5 2.8.4 3.1-.8 1.9-.8-.7-1.6-2.2-1.9-3.3-.4-1.6-.5-1.6-.6.3 0 1.3-.7 2.3-1.3 2.4-.7 0-.3.4 1 .9 2.4 1 2.9 2.9 1 4.8-.9.9-.8 1.2.5 1.2 1.9 0 4.9 5.2 4.1 7.3-.4 1.1.2 1.4 2.3 1.1 2-.3 1 .5-3.2 2.5-3.3 1.7-6.3 3-6.7 3.1-.3 0-1.2-2.3-1.8-5.1-.7-2.9-2.5-6.6-4.2-8.4-2.6-3.1-3.5-3.4-10.5-4.1-9.3-.8-18.7.7-25.9 4.2-6.4 3-8.3 6.5-5.9 11 .8 1.6 1.5 3.4 1.5 4 0 1.8 5.6 7.4 7.4 7.4.8 0 2.9 1.3 4.5 2.9 1.7 1.6 3.9 3.2 5 3.6 2.6.8 2.7 2.3.4 4.1-2.6 2-2.9 1.8-8.3-3.2-3.1-2.9-5.1-4.1-5.5-3.4-.5.8-1.8.2-3.9-1.8-4.9-4.7-10.6-8.2-13.5-8.2-1.4 0-2.1-.4-1.6-.8.6-.4 1-1.4 1-2.2 0-.8.8-1.6 1.9-1.8 1-.2 1.6 0 1.2.6-.3.6.2.8 1.3.5 1.3-.3 2.8.9 5.6 4.7 3.8 5.1 5.7 6.2 3.4 1.8-1.9-3.7-8.6-9.8-10.7-9.8-3.4 0-5.9 3.3-8.1 10.5-1.1 3.8-3.3 9-4.9 11.5-3.2 5-6.5 6.6-16.5 7.7-2.9.3-5.7 1-6.4 1.5-.7.5-1.4.5-1.8-.2-.3-.5.1-1 .9-1 .9 0 1.6-.5 1.6-1 0-.6 2.4-1 5.3-1.1 9-.1 11.7-1.7 16.6-9.7 3.9-6.4 4.4-7.8 4.4-13.6.1-4.2-.5-7.2-1.5-8.8-2-3-9.5-6.3-17.8-7.7-11.6-2.1-23 2-24.5 8.9-.4 1.6-1.1 3.3-1.7 3.7-.8.4-.9 0-.4-1.3.4-1 .9-3 1-4.4.2-1.4.1-1.9-.1-1.3-.2.7-1.3 1.3-2.4 1.3-3.8 0-1.5-2.6 4.9-5.4 5.1-2.3 4.8-3.3-.5-1.5-7.8 2.7-9.3 6.8-4.9 13.7 1.3 2 3 5.5 3.6 7.7.7 2.2 1.6 4.2 2 4.5.4.3 1.5 1.9 2.4 3.7 1.7 3.4 6.7 7.6 10.4 8.8 1.2.3 2.2 1.1 2.2 1.6 0 1.8-3.2.9-7.7-2.1-6-4.1-6.7-3.7-1.6.8 3.6 3.3 4.3 4.6 6.2 12.2 1.1 4.7 2.2 11.5 2.5 15.2.2 3.6.9 7.5 1.5 8.6.5 1 1.2 3 1.4 4.3.8 4.3 2.8 11.3 4.2 15.1.8 2.1 1.2 3.8.9 3.8-.4 0-.1.7.6 1.5s2.1 3 3.1 4.8c6.5 11.6 8.2 19.2 5.6 24.3-1.5 2.9-1.5 2.9 4.1 7.9 3 2.8 7.1 6 9.1 7.2l3.6 2.2.6-2.2c.6-2.1.7-2.1 1.7.5.7 1.8 2.1 2.8 4.4 3.3 1.8.4 4.8 2.3 6.6 4.1 1.9 1.9 3.8 3.4 4.3 3.4s1.5 1.3 2.4 2.9c.8 1.6 2.1 3.5 2.8 4.3.8.8 2.2 2.9 3.1 4.7 2.6 4.9 3 3 .6-2.2-1.2-2.6-1.8-5.1-1.4-5.8.4-.8.3-.9-.4-.5s-1.2.3-1.2-.3c0-2.1 2.2-2.2 3.6-.3.8 1.2 2.1 2.8 2.9 3.6.8.8 1.5 1.9 1.5 2.5 0 .6.4 1.1 1 1.1 1 0 6 14.9 6 18.1 0 1.9-.1 1.9-1.6.5-.8-.9-1.2-2-.9-2.6.3-.5.1-1.8-.4-2.7-.9-1.6-1-1.5-1.1.7-.1 2-.6 1.5-3-3-3.6-6.9-3.9-5.2-.4 2.6 1.5 3.3 3.7 9 5.1 12.9l2.4 7-2.6 2.2c-1.4 1.2-2.5 2.7-2.5 3.2 0 1.6-6.1 4.4-9.4 4.3-1.6 0-3.8.3-4.7.9-1.1.6-2 .5-2.4-.1-.3-.5.4-1 1.5-1 1.9 0 2.1-.4 1.6-2.6-.6-2.4-.6-2.5.9-1.1 2.9 3 5.4 3 9 .2 1.9-1.4 3.5-3.3 3.5-4.1 0-2.1-6-16.4-6.9-16.4-1.1 0-4.9-8.1-6.6-14.5-1-3.3-2.9-8-4.3-10.4l-2.5-4.4-1.9 2.6c-2 2.7-8.8 7.3-17.6 11.9-5.7 2.9-17.2 11.7-20.9 15.8-2.5 2.9-5.4 8.4-8.2 15.6-1.6 4.3-2.1 8.6-2.5 26.5-.7 22.2.3 31.3 4.1 39.7.8 1.9 1.2 3.6.9 3.9-.3.4-.6.1-.6-.5 0-.7-.4-1.2-1-1.2-.5 0-.1 2 1 4.5 1 2.4 2.2 6 2.5 7.8l.7 3.5 10.6 2.3c10.8 2.4 12.6 2.5 39 1.7 7.9-.3 8.3-.4 10.2-3.3 1.1-1.7 2-2.4 2-1.5 0 .9-.7 2.6-1.6 3.8-.8 1.2-1.2 2.3-.7 2.4.4.1-4.4.4-10.7.7l-11.5.6 14.9.9c11.3.6 15 .6 15.6-.4.5-.8 3.1-1.1 8.1-.9 11.2.5 18.1 0 17.4-1.1-.3-.5.8-1.6 2.5-2.5 3.7-1.9 6.4-.9 2.9 1.1-1.8 1-2 1.3-.7 1.4.9 0 2.4-.7 3.3-1.6 1.1-1.1 2-1.3 2.6-.7 1.2 1.2 10.9-.5 10.9-1.9 0-.6-.7-.7-1.6-.4-1.4.5-1.5.4-.4-.8 1.1-1.4 1.4-1.4 2.7-.1 1.8 1.9.8 2 11.3-1 13.5-3.8 23-7.6 23-9.1 0-.8-.4-1.4-.8-1.4-1.5 0-6.2 2.5-6.2 3.3 0 .5-.4.5-1 .2-.5-.3-3.3.1-6.2 1-6.1 1.8-5.8 1.7-5.8.7 0-.5 2.5-1.5 5.6-2.2 3.1-.8 7.6-2.6 10-4.2 2.5-1.5 4.6-2.8 4.8-2.8.2 0 .7 1.1 1 2.5.7 2.9 3.6 3.3 4.3.6.3-1.3 1.2-1.7 3-1.5 3.3.3 5.3-.5 5.3-2.1 0-.8.8-1.1 2-.8 1.1.3 2 0 2-.6s-.4-1.1-1-1.1c-.5 0-1-1.1-1-2.5 0-3.1 3.4-3.5 5-.5 1.2 2.3 3.5 2.7 2.6.5-.8-2.1 3.3-4.2 4.5-2.4.7 1.1 1.2 1.1 2.6-.4 1.3-1.3 1.5-2 .6-2.5-.8-.5-.9-1.3-.3-2.2.6-.8 1-1.1 1-.6 0 .5.8.2 1.7-.5.9-.8 1.4-.9 1-.3-.4.7.2 1.4 1.4 1.7 2 .5 3.9-1.7 2.5-3-.3-.4-.6-.1-.6.5 0 .7-.4 1.2-1 1.2-.5 0-1-1.1-1-2.5 0-2.6 1.5-3.4 2.3-1.3.3.9.9.7 2-.7l1.6-2-.2 2c-.1 1.2.4 2 1.3 2 .8 0 1.5-.6 1.4-1.3-.1-.6-.2-2.8-.2-4.8-.1-2.1-.6-3.3-1.2-2.9-.6.4-1.8.1-2.6-.6-1.4-1.2-1.4-1.4.2-2.6 1.3-.9 1.9-2.6 1.9-5.3 0-2.2.3-4 .6-4 .4 0 1-1.2 1.3-2.6 1-3.9 2.4-1.8 3 4.6.3 3 .3 4.7 0 3.7-.3-.9-.9-1.5-1.4-1.2-1.3.8.1 4.5 1.6 4.5.8 0 1.4 1 1.4 2.5 0 1.8-.4 2.3-1.5 1.9-.8-.4-1.5-.4-1.5-.1 0 .3 1.4 1 3.1 1.6 2.8 1 3 .9 2.4-.7-.4-.9-1-4-1.2-6.9-.4-4.4-.2-5.3 1.5-6.2 2.4-1.3 8.5-.3 7.5 1.2-.3.6-.1.7.6.3 1.9-1.2.4-2.4-3.9-3.1-2.7-.5-4.6-.3-5.6.6-1.4 1.1-1.5.8-1.2-2.2.2-2.9.8-3.6 3.8-4.7 2.9-1 3.1-1.2.7-.9-3.5.5-4.4-.8-1.6-2.4 2.7-1.4 10.8-.6 12 1.2.7 1.1.9 1.1.9-.3 0-1.2.7-.9 3.2 1.3 5 4.7 6.6 5.3 6.6 2.4 0-2.5-4.3-7.3-5.5-6.1-.4.4.6 1.8 2.2 3.1 1.7 1.3 2.6 2.4 2 2.4-1.6 0-5.2-3.3-5.9-5.5-.7-2.4-10-4.8-12.9-3.2-1.3.6-1.9.5-2.4-.8-1.1-2.9 1.1-4.7 6.1-5.1 3.7-.4 6.1.2 11.2 2.6 3.5 1.7 6.8 3.1 7.2 3.2.4.2 1.5 1.3 2.5 2.6s2.3 2 2.8 1.7c.6-.3-.3-1.8-2-3.3-2.9-2.6-4.3-4.9-2.1-3.6.6.3 1 .3 1-.2-.1-3.6-11.1-9.3-18.2-9.3-2.3 0-3.8-.5-3.9-1.3-.1-.6-.2-1.9-.3-2.7 0-.8.8-2.3 1.9-3.3 1.2-1.1 1.4-1.6.5-1.3-.8.3-2.2.9-3.1 1.2-1.3.4-1.5 1.3-.9 4.7.5 2.2.5 4.9.1 5.9-.6 1.6-.9 1.7-2.6.4-1.7-1.2-2.1-1.1-3.6.8l-1.7 2.1-3-2.8c-2.9-2.8-3-2.8-3.7-.8-.3 1.2-1.3 2.1-2.1 2.1-1.8 0-1.8 1 .2 3.8 1.7 2.4 1.4 3.9-.5 2.7-.6-.3-1.1-1.3-1.1-2.1s-.7-1.4-1.5-1.4-1.5.4-1.5 1c0 .5.5 1 1.1 1 .5 0 .7.5.4 1-.3.6 0 1.3.9 1.6.8.3 1.2 1.2.9 2-.3.8 0 1.4.6 1.4s1.1.4 1.1 1c0 1.8-1.7 1-3-1.5-.7-1.4-1.8-2.5-2.3-2.5-1.4 0-3.6-3.2-3.7-5.2 0-.9-.6-1.9-1.2-2.2-1.7-.8 3.2-.1 5.7.9 1.6.6 1.6.3-.5-1.5l-2.5-2.2 3.3.6c1.8.3 3.2.1 3.2-.4 0-.6-.8-1-1.7-1.1-1.2-.1-.9-.4.7-.9 2.3-.7 2.3-.8.6-1.5-1.3-.6-2.3-.3-3.1.8-1.6 2.2-2.7 2.2-2.3.1.2-1-.3-1.9-1-2.1-.8-.3-1 .1-.6 1.4.5 1.4.1 1.2-1.7-.7-1.3-1.4-3.3-2.7-4.4-2.8-1.1-.2-2.5-.8-3.2-1.4-.8-.6-1-.3-.6 1.1.4 1.5.1 2.1-1.1 2.1-2 0-9.6 7.5-9.6 9.4 0 .8 1.2 1.7 2.6 2 1.5.4 5.2 3.3 8.2 6.4 4 4 5.4 5 5 3.4-.4-1.2-.2-2 .3-1.6 1.5.9 1 3-1.3 5.9-1.8 2.4-2.6 2.6-5.9 2.1-3.2-.5-4-.3-4.9 1.4-1.3 2.4-4.5 2.6-5.4.4-.8-2.1-.8-2 .9-3.8 1.1-1.1 2.3-1.2 4.5-.6 3.9 1.1 3.9-.2 0-1.7-2.1-.8-3-.8-3.4.1-.2.6-.5.2-.5-.9-.1-1.1.6-3.3 1.4-4.9 1.9-3.7 1.9-4.2-.2-2.5-1.5 1.2-1.6 1.2-1-.3.3-1 .2-1.8-.2-1.8-1.2 0-2.4 3.4-1.4 3.7 1.1.4.4 7.1-.8 7.9-.5.3-.9 1.5-.9 2.6s-.8 2.7-1.7 3.5c-1.6 1.3-1.6 1.4-.1 1 .9-.3 1.9-.3 2.2 0 .3.4 1.8.8 3.2.9 1.4.2 2.9.5 3.2.8 1.1 1.2-.5 1.5-3.4.8-3.5-1-7.4-.4-5.4.8.7.4 1 1.5.7 2.3-.4 1.2-1.3 1.4-3.4.8-2.7-.7-2.8-1-3-8.2-.2-4.9 0-6.9.6-5.8.6.8 1.1 3.9 1.2 6.8.2 2.8.6 5.4 1.1 5.7.9.6.2-20.5-.7-21.4-.3-.3-.5.7-.5 2.1 0 1.5-.4 2.7-1 2.7-.9 0-.6-1.7 1.1-5.5.4-1.1 1.5-4.5 2.4-7.6 1.4-5 4.4-10.9 9.8-19.1 1.2-1.7 1.4-2.8.8-3.3-.6-.3-1.1.1-1.1.9 0 .9-.4 1.6-1 1.6-.5 0-1.6 1.2-2.4 2.7-.8 1.6-1.5 2.3-1.6 1.8 0-.6 1.8-3.9 3.9-7.5 2.2-3.6 5-8.3 6.2-10.5 3.3-6.1 6.8-9.3 12.6-11.5 7.1-2.7 14.7-2.6 19.8.1 5.7 3.1 30.6 25.4 34.8 31.3 1.7 2.4 1.8 3.2.8 4.8-.7 1.1-.9 2.3-.5 2.6.4.4.9.1 1.1-.5.4-1 1-1 2.6-.1 2.1 1.1 2.1 1 .7-.7-1-1.3-1.1-1.6-.2-1.1.8.5 2.2 2.2 3.3 4 2.1 3.5 2.5 2.3.6-2-2-4.7-4.8-8.4-6.3-8.4-.8 0-1.4-.5-1.4-1 0-.6-1.4-2.4-3.1-4.1-2.5-2.5-2.9-3.3-1.8-4 .8-.5 2.3-.6 3.4-.4 1.1.3 1.5.2.8-.1-.6-.3-2.4-2.8-3.8-5.6-3-5.6-4.2-6.9-12.7-12.9-3.2-2.2-5.8-4.4-5.8-5 0-.6-.5-.7-1-.4-.6.3-1 .1-1-.5s-.8-1.4-1.7-1.7c-1-.4-2.7-1.6-3.8-2.8-2.8-2.9-22.9-14.5-25.1-14.5-.4 0 .1.6 1.1 1.4 1.8 1.3 1.7 1.4-1.4 2.1-2.3.5-3.6.3-4.1-.5-.4-.7-1.4-1-2.1-.8-1.3.4-3.9-1.3-3.9-2.6 0-.2.8-.7 1.8-.9.9-.3-1.3-.5-5-.6-3.8 0-6.8-.5-6.8-1 0-.4-1.8-3.1-4-5.9-5-6.3-15.4-14.2-18.5-14.2-2.7 0-4.2-1.6-2.3-2.3.9-.4.8-.6-.2-.6-2.6-.2-9.3-6.9-8.6-8.7.3-.8-.1-2.2-.9-3-.8-.9-1.5-2.7-1.4-4.2v-2.7l1 2.4c1 2.5 3.7 5 5.3 5.1.5 0 0-1-1.2-2.3-2.3-2.4-3.2-5.1-1-2.9 2 2 2.8 1.4 1.8-1.4-1.3-3.3-1.4-3.1 1.3-3.8 1.7-.5 1.9-.8.8-1.5-1.1-.7-1.1-.9 0-1.3 1-.4.8-1.1-.9-2.6-3-2.6-2.1-4.2 2.2-4.2 5.9 0 9.6-1.1 9.6-3 0-.9-.3-2-.7-2.4-1.4-1.4-1.3-4.6.1-4.6.8 0 1.7-.4 2-.9.3-.4-.5-.6-1.9-.4-2.5.5-4.4 3.3-2.2 3.3.7 0 .4.5-.6 1.1-.9.6-1.5 1.4-1.2 2 1 1.5-3.2 1-4.9-.6-1.2-1.3-1.3-2.1-.4-4 .6-1.4 1.7-2.5 2.5-2.5.7 0 1.2-.5 1.1-1.2-.2-.6 1.1-1.4 2.7-1.8 1.7-.4 4-1.2 5-1.8 1.6-.8.7-1-3.8-.5-4.4.4-6.1.3-6.7-.8-1.2-1.9-.3-2.9 2.6-2.9 1.5 0 2.3-.4 1.9-1.1-.4-.6-1.3-.8-2-.5-.7.2-1.6-.2-1.9-1-.3-.9-1.1-1.2-1.8-.8-.8.5-.9.2-.5-1 .4-1 .7-1.9.7-2.2 0-.2.8 0 1.7.3 1.2.5 1.5.2 1-1-.5-1.3-.1-1.7 1.5-1.7 2.1 0 2.1 0 .2-1.5-3.1-2.3.5-1.9 8.2 1 3.6 1.4 7.8 2.5 9.3 2.4 2.4 0 2.3-.1-.9-1.3-1.9-.7-6.8-2.4-10.7-3.7-4-1.3-7.3-2.7-7.3-3.1 0-.4.7-.5 1.5-.2.8.4 1.5.1 1.5-.5s-.5-1.1-1.2-1.1c-.8 0-.9-.3-.2-1s3-.3 6.9 1.1c4.6 1.6 6.6 1.9 9 1.1 2.8-.9 2.7-1-2-1.1-4.7-.2-13-2.8-9.3-3 2.9-.2 10.5-3.8 12.7-6.2 2.7-2.9 1.9-3.7-1-1-2.5 2.3-3.9 2.7-3.9 1.1 0-.6-.4-1-1-1-.5 0-.7.7-.3 1.6.5 1.4.2 1.4-2.2-.2l-2.8-1.8 3.4-1.2 3.4-1.2-3.7-.1c-2.1-.1-3.8-.6-3.8-1.1 0-.6.7-1 1.5-1 2 0-2.3-4.6-5-5.3-1.7-.4-1.7-.5.4-.6 1.7-.1 2.1-.4 1.3-1.4-.5-.6-1.2-3-1.4-5.2-.4-3.7-.1-4.3 4.4-8.6 4.8-4.5 4.8-4.5 4.8-11 0-6.8 1.1-9.1 3.9-8.2 1.1.3 1.2.2.4-.4-1-.7-.9-1.5.1-3.5.8-1.5 1.2-2.9.8-3.2-.3-.3 0-.6.6-.6.7 0 1.2-.5 1.2-1.1 0-.6-.6-.9-1.4-.6-1.3.5-2.6-1.2-2.6-3.3 0-.4 1.4-.7 3.1-.6 2 0 3.4-.4 3.7-1.4.4-1.2.3-1.3-1-.2-2.1 1.7-4.7.5-5.4-2.4-.8-3.3-2.2-3-1.7.3l.5 2.8-2.1-3c-1.1-1.7-2.1-3.5-2.1-4 0-.6-1.1-2.4-2.5-4l-2.5-3 1.5 3c1.9 3.8 1.9 4.9 0 4.1-.8-.3-1.5-.1-1.5.4 0 .6.3 1 .8 1 .4 0 .7 1.7.7 3.8 0 3.6-.1 3.7-3.5 3.8-3.5.1-6.7-1-6.2-2 .6-1.6 0-2.7-2.3-3.8-1.9-.8-2.5-2.1-3-5.7-.3-2.5-1.2-6.3-2-8.4-1.3-3.6-1.3-3.8.6-3.2 1.8.6 1.9.5.7-1.4-.7-1.2-2-2.1-3-2.1-3.6 0-3-3.8 1.4-8.7 2.1-2.2 2.1-5.4.1-6-.7-.3-1 .3-.7 1.5.8 2.7-1.6 4.4-3.9 2.8-1.6-1.3-1.6-1.5.4-4 1.7-2.2 2.7-2.6 4.7-2.1 2.3.6 2.4.5 1.1-1.2-1.1-1.4-.7-1.3 2.1.4 3.6 2.3 5.5 5.1 2.7 4-.9-.3-1.9-.2-2.2.3-.4.6.2 1 1.3 1 3.7 0 12.8 13.4 11.7 17.2-1 2.9-2.2 2.1-2.9-2-.7-4.9-3.9-8.1-6.1-6.2-1.2 1-2.1 1-4 .2-1.9-.9-2.6-.8-3.7.5-1.1 1.5-1.1 1.6.5 1 3.2-1.2 4.7.1 3.5 3.4-.9 2.6-.6 3.2 2.5 6.2 2.9 2.7 3.8 3.1 5.1 2.1.9-.6 1.3-1.4.9-1.7-.3-.4-.1-.7.6-.7s2.9 1.6 4.8 3.5c2.3 2.3 4.2 3.4 5.3 3 1.1-.3 2 .1 2.4 1 .4 1.3.1 1.5-1.4 1-1.1-.4-2-.2-2 .4 0 .6 1.1 1.1 2.5 1.1 3 0 3.1-.9.5-5.5-1.6-2.8-1.7-4-.9-6.2 1-2.8 1-10.6-.2-12.4-.5-.8-1.2-.8-2.7 0-1.9 1-2.8.4-7.9-4.7-3.2-3.1-7.6-7.2-9.8-8.9l-4-3.2 3-2.5c4.4-3.7 7.8-3.1 4 .7-1.3 1.3-1.2 1.6.8 2.1 4.1 1 10.6 6.5 12.7 10.6 2.2 4.4 3.5 5.3 2.4 1.7-1.1-3.5-6.5-10.6-8.6-11.3-1.2-.3-1.7-1.2-1.4-2.1.4-1.1.1-1.3-1.4-.8-1.4.5-2 .2-2-.9 0-2.7 3.4-1.8 7.3 2 2 2 3.7 3.3 3.7 2.9 0-.9-4.6-7.1-7.2-9.7-1-1-1.8-2.2-1.8-2.7s-.9-1.2-1.9-1.6c-1.1-.3-2.7-2.5-3.7-5-.9-2.4-2.9-5.9-4.5-7.6-1.6-1.8-2.9-3.7-2.9-4.2 0-.4-.7-.1-1.6.7-2.4 2.5-3.6 1.9-3.2-1.5.2-2.5-.2-3.3-1.9-4-1.7-.6-2.1-.5-1.6.7.4 1-.2 1.7-1.6 2.1-1.1.3-2.1.9-2.1 1.4 0 .5 1.1.3 2.5-.3s2.5-1.5 2.5-2c0-.4.3-.8.8-.8 1.4 0 .1 7.8-1.4 8.4-.8.3-2.3-.3-3.4-1.4-1.1-1.1-2.4-2-3-2-.5 0-1-.6-1-1.3-.1-3.6-1.9 2.7-2.2 7.6-.1 3.1-.7 5.7-1.2 5.7s-.6-3.9-.2-9.2c.9-13.8-1.2-9.7-2.6 4.8-.6 6.5-1.2 12-1.3 12.2-.1.1-1 0-1.9-.4-1.2-.5-1.6-2-1.6-6.9 0-3.5.5-6.7 1-7 .6-.3 1-2.2 1-4.1 0-2.2.6-3.7 1.5-4 1.2-.5 1.4-1.5.9-4.3-.4-2-1-4-1.4-4.5-.5-.5-.6-1.5-.3-2.2.3-.8 0-1.4-.6-1.4s-1.1.7-1.1 1.6c0 .8-.4 1.2-1 .9-1.2-.7-1.4-5.5-.2-5.5.4 0 1.4.6 2.1 1.2 1.1 1.1 1.3 1 .7-.5-.3-1-.6-2.2-.6-2.6 0-.5-1.1-.6-2.5-.3-2.3.4-2.5.9-2.5 5.7 0 5.8-.7 8.5-2.1 8.5-.6 0-.4-1 .2-2.2 1.8-3.3.4-12.1-2.7-17.9-6.6-11.9-19.8-16.9-30.6-11.3-3.7 1.9-3.6 2.5.4 1.3 4.1-1.1 4.8-1.1 4.8.1 0 .5-1.1 1-2.5 1-3.4 0-9.8 6.7-9.2 9.7.2 1.3 0 2.3-.6 2.3-1.5 0-3.6 3.3-3.7 5.7 0 2.4-2 3.3-2 1 0-.6-.5-.4-1.1.5-1.6 2.9-4.2 2.3-3.5-.7.5-1.8.3-2.4-.6-2.3-.7.2-1.2-.3-1-1 .1-.8-.2-1.1-.7-.7-.6.3-.8 2-.4 3.6.6 3 .5 3-1.6 1.7-1.9-1.1-2.2-2.1-2-6.8.2-5.7 2.1-11.8 4.2-13.5 1.4-1.2 3.9-5.5 3.2-5.5-.2 0-1.6 1.2-3 2.7-2.8 3.1-3.4 2-.9-1.5 2.3-3.3 1-2.7-2.4 1.2zm38.5 1.4c.8.5-.8.8-3.6.8s-4.8-.3-4.5-.8c.7-1 6.5-1 8.1 0zm-3.7 3.9c-3.7 1.6-7 4.5-7 6.3 0 1.9 3.1 1 7.6-2.1 3.6-2.5 4.8-2.8 5.9-1.9 2.5 2.1 1.6 4.4-2.7 7.4-3.3 2.4-4.4 2.7-5.7 1.8-.9-.7-3.3-2.1-5.3-3.2s-3.9-2.4-4.3-3c-.9-1.5 8.5-7 11.9-6.9l3.1.1-3.5 1.5zm-48.2 0l-1.8 4.5c-.8 2.1-2 3.8-2.7 3.8-1 0-1.1-.5-.3-1.8.5-.9 1.4-2.9 2-4.5.5-1.5 1.4-2.7 2.1-2.7.6 0 .9.3.7.7zm10.9 4.5c-.3.8-.6.5-.6-.6-.1-1.1.2-1.7.5-1.3.3.3.4 1.2.1 1.9zM262 56c0 .5-1.2 1-2.7.9-2.5 0-2.6-.1-.8-.9 2.7-1.2 3.5-1.2 3.5 0zm-20 5c2.2 1.1 4 2.4 4 2.8 0 .4 1 1.3 2.1 2.1 1.9 1.1 2.1 1.1 1.6-.3-.4-.9-.3-1.6.1-1.6.8 0 4.8 5.7 5.8 8.2.3 1 1.6 1.8 2.9 1.8 3.7 0 7.4 6.4 9.4 16 1.2 6 1 8-.6 8-.8 0-1.2.4-.9.8.3.5-.1.9-.9.9-1 0-1.5-1.1-1.5-3.3 0-5.4-6.8-18.2-12.6-23.7-8.2-7.7-15.3-12.4-18-11.9-1.4.2-2.4 0-2.4-.7 0-1.8 6.8-1.3 11 .9zm15.3-.1c-.6 2.3-2.6 3.3-4.8 2.4-1.4-.5-1.4-.8.1-2.4 2.3-2.6 5.4-2.5 4.7 0zm6.7.1c0 .5-.7 1-1.6 1-.8 0-1.2-.5-.9-1 .3-.6 1-1 1.6-1 .5 0 .9.4.9 1zm-29.7 2.1c-.6.6-.9 1.8-.6 2.5.3.8 0 1.4-.6 1.4s-1.1-1.1-1.1-2.5c0-1.7.6-2.5 1.7-2.5 1.3 0 1.4.3.6 1.1zM231 65c0 .5-.8 1.1-1.7 1.1-1.7.1-1.7.2 0 .6 2.6.7 2 2.3-.8 2.1-1.9-.2-2.5-.8-2.5-2.5 0-1.8.6-2.3 2.5-2.3 1.4 0 2.5.4 2.5 1zm8-.1c0 .5.9 1.1 2.1 1.4 1.2.3 1.8 1 1.4 1.7-.5.8-1 .8-2 0-.7-.6-1.9-.8-2.7-.5-1 .4-1.7-.1-2.1-1.4-.4-1.6 0-2.1 1.4-2.1 1 0 1.9.4 1.9.9zm20 .1c0 .5-.4 1-.9 1s-1.6.3-2.5.6c-.9.3-1.6.1-1.6-.4 0-.9 1.6-1.7 4.3-2.1.4 0 .7.3.7.9zm9 1.9c0 .5-1.3 1.1-3 1.3-3.2.5-4.2-.7-1.2-1.5 2.9-.8 4.2-.7 4.2.2zm-68.1 5.4c.2.4 1.4 1.2 2.7 1.7 2.9 1.1 3.1 2.6.4 4-1.6.8-2.2.7-3.2-1-1.5-2.4-3.5-2.5-6.2-.5-1.9 1.5-1.9 1.5.4 1.5 1.3 0 2 .3 1.6.7-.3.4.4 1.3 1.6 2 1.5.8 1.8 1.2.8 1.3-2.2 0-5.5-2.5-8-6l-2.1-3 3.3.1c2.7 0 3 .2 1.3.9-1.8.8-1.8.9-.2.9 1 .1 2.4-.5 3.2-1.2 1-1.1.8-1.5-1.6-2.6-1.6-.7-2.9-1.8-2.9-2.6 0-.9 1.2-.7 4.3.8 2.3 1.2 4.4 2.5 4.6 3zm60-1.7c-1.5 1.8-2.8 1.8-3.6-.2-.8-2 1.7-3.6 3.4-2.2 1 .8 1 1.4.2 2.4zm-4.2 10c2.9 5.4 2.9 5.4-.4 5.3-1.6 0-2.2-.3-1.5-.6 1.2-.5 1.7-4.3.6-4.3-.4 0-1.3.8-2 1.7-.9 1.3-1.3 1.4-1.4.4 0-.8-.6-1.1-1.6-.7-1.2.5-1.5.2-1-1 .3-.8.6-2.1.6-2.7 0-.8.4-.7 1.2.1.7.7 1.6 1.2 2.1 1.2 1.9 0 0-2.9-4.5-6.8-2.6-2.2-4.3-4.2-3.7-4.4 1.6-.5 9.1 7 11.6 11.8zM236 70.5c0 .8-.3 1.5-.6 1.5s-1.2-.7-2-1.5c-1.4-1.3-1.3-1.5.5-1.5 1.2 0 2.1.6 2.1 1.5zm6 1.6c0 1.5-3 2.3-4.2 1.1-.6-.6-.8-1.8-.4-2.7.4-1.3 1-1.4 2.6-.5 1.1.6 2 1.5 2 2.1zm26.2-1.9c-.9.9-1.5.9-2.4 0-.9-.9-.7-1.2 1.2-1.2s2.1.3 1.2 1.2zM191 71.6c0 .2-.7.4-1.5.4s-1.5-.4-1.5-1c0-.5.7-.7 1.5-.4.8.4 1.5.8 1.5 1zm18.8-.4c.7.7 1.2 1.6 1.2 2 0 1.5-1.5.8-2.8-1.2-1.3-2.2-.3-2.7 1.6-.8zm53.6.3c.3.9 0 1.5-.9 1.5s-1.2-.6-.9-1.5c.4-.8.7-1.5.9-1.5.2 0 .5.7.9 1.5zm-39.7 1.1c-.3.3-1.2.4-1.9.1-.8-.3-.5-.6.6-.6 1.1-.1 1.7.2 1.3.5zm52.6 0c1.1 1.1-.5 3.4-2.3 3.4-1.3 0-1.7-.5-1.3-2 .5-1.9 2.3-2.6 3.6-1.4zm-49.8 7.8c1.6 2 3.5 3.6 4 3.6.6 0 1.9 1 2.9 2.2 1.6 1.9 1.7 2 .1 1.5-.9-.4-2-.7-2.5-.7-1.4 0-14.1-12.6-13.4-13.3.9-.9 5.3 2.4 8.9 6.7zm10.5-2.6c3 2 5.7 3.7 5.9 3.9.2.2.1.6-.2 1-.4.3-1.5-.1-2.6-1.1-1-.9-4.7-3.3-8.2-5.2-4.5-2.5-5.5-3.4-3.4-2.9 1.7.3 5.5 2.2 8.5 4.3zm10-2.3c0 1.8-2.7 2.6-3.9 1.1-.7-.9-.7-1.6 0-2.3 1.4-1.4 3.9-.6 3.9 1.2zm-38.5 1.6c-.4.5.1.9.9.9.9 0 1.6.7 1.6 1.5s-.7 1.5-1.5 1.5-1.5-.5-1.5-1c0-.6-1.1-.3-2.5.6-3.1 2-3.2 1.1-.2-2.6 2-2.5 4.6-3.2 3.2-.9zm9 .3c1.7 1.3 2.8 2.7 2.5 2.9-.3.3-2.1-.8-4-2.4-1.9-1.5-3-2.9-2.5-2.9.6 0 2.4 1.1 4 2.4zm22.5 6.7c.3.4 2.6 1.9 5 3.2 4.8 2.5 7.7 6.9 8.4 12.6.5 4.4-1.4 3.5-3.1-1.5-1.7-5.2-8.8-12.3-10.5-10.6-2.2 2.2-3.9 1.4-3.2-1.4.5-1.8.3-2.5-.4-2-1.9 1.1-4.3-.5-3.7-2.5.4-1.1.3-1.9-.2-1.8-1.9.3-5.3-1.4-5.3-2.7 0-1.3 11.8 4.7 13 6.7zm34.5-.7c.4 3.3.3 4.6-.4 4.1-.6-.3-1.1-1.9-1.1-3.5s-.4-3.1-1-3.5c-.5-.3-.6-1.3-.3-2.1.9-2.4 2-.4 2.8 5zm-6-2.4c.3.5.1 1-.4 1-.6 0-1.1-.5-1.1-1 0-.6.2-1 .4-1 .3 0 .8.4 1.1 1zm-46.2 3.1c2.6 1.7 4.7 3.3 4.7 3.6 0 .5-8.9-4.4-10.4-5.8-2.3-2.1 1.4-.7 5.7 2.2zm-11.6-1.3c.8.5.9 1.3.3 2.2-.7 1.2-1.2 1.2-3.4.1-1.4-.8-2.3-1.8-2-2.3.6-1 3.5-1 5.1 0zm-.9 6.3c4.5 2.9 7.9 5.5 7.7 5.7-.4.5-6.9-3.5-14.2-8.7-7.2-5.1-2.7-3 6.5 3zm36.7-4c1.1 1.7-.1 2.1-1.5.4-.8-.9-.8-1.5-.2-1.5.6 0 1.4.5 1.7 1.1zm25.3.7c.3.9-.2 1.3-1.4 1-.9-.1-1.9-.9-2.2-1.6-.3-.9.2-1.3 1.4-1 .9.1 1.9.9 2.2 1.6zm25.2.2c0 .5-.2 1-.4 1-.3 0-.8-.5-1.1-1-.3-.6-.1-1 .4-1 .6 0 1.1.4 1.1 1zm-77.3.8c1.2.8.7 5.2-.6 5.2-.4 0-1.7-.7-3-1.7-2.3-1.5-2.3-1.7-.6-3 2.2-1.5 2.6-1.6 4.2-.5zm82.3.2c0 .5-.7 1-1.5 1s-1.5-.5-1.5-1c0-.6.7-1 1.5-1s1.5.4 1.5 1zm-101.5 2.4c1.1.8 1.6 1.9 1.2 3-.8 2.1-2.3 2.1-3.1-.2-.3-.9-.9-2.3-1.2-3-.8-1.6.8-1.5 3.1.2zm54.2-.3c-1.4.8-2.2.8-3 0-.8-.8-.3-1.1 1.9-1.1 2.5.1 2.7.2 1.1 1.1zm36.3-.2c0 1.6-1.9 2.3-4 1.6-3-1-2.4-2.5 1-2.5 1.7 0 3 .4 3 .9zm5.4 0c.3.4.3 1.1 0 1.4-.8.8-3.4-.3-3.4-1.4 0-1.1 2.7-1.2 3.4 0zm-68.1 2.8c2.7 1.9 3.7 3.2 3.4 4.5-.3 1-.1 1.8.5 1.8 1.7 0 15.5 7 16.7 8.4 2.1 2.5-.8 3-7 1.1-3.9-1.2-5.5-2.1-4.7-2.6.9-.6.2-1.1-1.9-1.5-1.9-.4-3.3-1.3-3.3-2.1 0-.7-.8-1.7-1.7-2-1-.4-3.7-2-6-3.5-3.1-2.1-4-3.3-3.6-4.8.7-2.7 3-2.5 7.6.7zm14.1-.6c-.6 1.1-2.4.2-2.4-1.1 0-.5.7-.7 1.5-.4.8.4 1.2 1 .9 1.5zm16.6-.6c0 .8-.4 1.5-1 1.5-.5 0-1-.7-1-1.5s.5-1.5 1-1.5c.6 0 1 .7 1 1.5zm13 .5c0 1.1-.4 2-1 2-.5 0-1-.9-1-2s.5-2 1-2c.6 0 1 .9 1 2zm32.1-.3c1.3 1.5 1.1 1.6-1.1 1-1.4-.4-3.1-.7-3.7-.7-.7 0-1.3-.5-1.3-1 0-1.6 4.6-1.1 6.1.7zM196.5 92c.3.5.1 1-.4 1-.6 0-1.1-.5-1.1-1 0-.6.2-1 .4-1 .3 0 .8.4 1.1 1zm59.5 2.3c0 2.3-.2 2.2-1.9-1-1-1.9-.9-2.2.4-1.7.8.4 1.5 1.5 1.5 2.7zm34.9-2.3c.7-.4 2.2-.5 3.2-.3 1.4.4 1.7 1.1 1.3 2.9-.4 1.4-.2 2.4.5 2.4.6 0 .8-.6.5-1.3-1.1-3 2-3.6 6.8-1.5 4 1.7 4.5 2.2 3.3 3.4-.7.8-1.9 1.2-2.7 1-.7-.3-4.6-.7-8.6-1-4.1-.3-7.8-.8-8.3-1.2-.5-.3-.9.1-.9.9 0 1 .9 1.3 2.8 1 2.4-.3 2.5-.2.6.6-1.2.5-2.5 1.4-2.9 2-.3.6-1.3 1.1-2.1 1.1-1 0-1.2-.5-.7-1.2.4-.7.6-2.5.4-4-.2-2.6 0-2.8 3.1-2.3l3.3.5-3.3-1c-1.8-.6-3-1.5-2.7-2 .3-.5 1.5-.6 2.9 0 1.2.4 2.8.5 3.5 0zm-84.1 3.8c.3 1.6-.2 2.2-1.7 2.2-2.4 0-3.5-1.5-2.7-3.6.9-2.3 4-1.3 4.4 1.4zm53.2-.7c0 .5-.4.9-1 .9-.5 0-1-.7-1-1.6 0-.8.5-1.2 1-.9.6.3 1 1 1 1.6zm-45.2 3.6c.3 2.6 1 3.2 6 5.1 4.9 1.8 5.2 2.1 2.2 1.8-7.4-.7-12.5-4.3-11.6-8.2.9-3.3 3-2.5 3.4 1.3zm-64.1-.5c-.3.8-.6.5-.6-.6-.1-1.1.2-1.7.5-1.3.3.3.4 1.2.1 1.9zm107.2 2.6c0 2.4-.1 2.5-.9.7-1.2-2.8-1.2-4.7 0-4 .6.3 1 1.8.9 3.3zM283 98c0 .5-.4 1-1 1-.5 0-1-.5-1-1 0-.6.5-1 1-1 .6 0 1 .4 1 1zm-133.7 4.3c-.3.5-1.1 0-1.8-1s-1.1-2.1-.8-2.6c.3-.5 1.1 0 1.8 1s1.1 2.1.8 2.6zm24.7-1c.8.4.2.5-1.5.4-2.1-.1-3.1-.8-3.4-2.2-.3-1.9-.2-1.9 1.5-.4 1.1.9 2.6 1.9 3.4 2.2zm37.1 1.8c4.6 2.2 9.1 4.5 9.9 5 .8.5 3.4 1.9 5.8 3 5.4 2.6 13.5 8 12.8 8.6-.2.3-3.1-1.1-6.4-3-3.3-1.9-6.9-3.8-8.1-4.2-1.1-.3-2.7-1.2-3.3-1.8-.7-.7-4.5-2.7-8.4-4.5-6.4-3.1-12.8-7.1-11.3-7.2.4 0 4.4 1.8 9 4.1zm10.9-2.6c1.4 1.6 1 1.8-1.4.9-.9-.3-1.6-1-1.6-1.5 0-1.4 1.6-1.1 3 .6zm-35.1 1.6c2.3.7 4.1 1.6 4.1 2 0 .4-2.3.1-5.2-.8-4-1.1-5.7-1.2-7-.4-1 .6-1.8.7-1.8.2 0-1.3 3.2-3.1 4.6-2.6.7.2 3 .9 5.3 1.6zm10.5-.5c.9 2.2.8 2.6-.6 2.2-1.3-.5-2-3.8-.8-3.8.4 0 1.1.7 1.4 1.6zm99.6.6c0 1.9-.2 2-1 .8-1.3-1.9-1.3-3 0-3 .6 0 1 1 1 2.2zm-31.1 3.2c.1.4-.5.6-1.3.3-.9-.4-1.2.2-1 1.9.2 2.1 0 2.3-1.2 1.3-1.5-1.2-.9-5.9 1-7.1 1-.7 2.3 1.3 2.5 3.6zm26.9-2c.3 1.2-.1 1.7-1.4 1.4-.9-.1-1.8-1.1-2-2.1-.3-2.4 3-1.8 3.4.7zm13.2.1c0 .7-.7 1.5-1.5 1.9-1.5.5-2.2-2.4-.9-3.7.9-.9 2.4.2 2.4 1.8zm-4.6 1.1c.8 2-.1 3.4-2 3.4-.8 0-1.4-.8-1.4-1.8 0-3.3 2.3-4.4 3.4-1.6zM152 105c0 .5-.2 1-.4 1-.3 0-.8-.5-1.1-1-.3-.6-.1-1 .4-1 .6 0 1.1.4 1.1 1zm43.6.5c1.6 1.2 1.6 1.4.3 1.5-.9 0-2.2-.7-2.9-1.5-1.6-1.9 0-1.9 2.6 0zm8.7.5c.6 2.2-1.2 2.7-3.1.8-1.7-1.7-1.5-2.8.7-2.8 1 0 2.1.9 2.4 2zm52.1.1c1.4 1.1 2.6 2.9 2.6 3.9s1.7 3.2 3.8 4.8c2 1.7 3.4 3.3 3 3.7-1 1.1-8.5-5.4-11.8-10.3-3.2-4.6-2.1-5.6 2.4-2.1zm-92.4.4c0 1.7-.2 1.8-2.5.9-1.3-.5-1.4-.8-.3-1.5 1.9-1.3 2.8-1.1 2.8.6zm115.4-.7c.8 1.3-1.1 3.5-2.3 2.8-1.6-1-1.4-3.6.3-3.6.8 0 1.7.4 2 .8zm-69 2.7c1.5 1.4 3.5 2.5 4.5 2.5 2.1 0 8.4 2.1 7.8 2.6-.2.2-3.4-.3-7.2-1.1-6.9-1.4-10.3-3.4-9.1-5.4.9-1.5.9-1.5 4 1.4zm26.6.1c1.9 1 2.1 1.3.7 1.4-2 0-8.7-2.6-8.7-3.5 0-.8 5 .5 8 2.1zm61.4 1l3.9 2.6-2.6 1.7c-2.6 1.7-8.1 7.2-7.5 7.5.2.1 1.5 1 3 1.9 1.7 1 2.5 2.3 2.2 3.2-.4 1.1-1.4.6-4.1-2-4.2-4.1-3.9-6.4 1.6-11.3 2.7-2.5 3.1-3.2 1.5-2.7-1.2.3-3.4-.1-5-1-1.6-.8-4-1.5-5.4-1.5-2 0-2.2-.2-1-1.1 2.3-1.5 9-.1 13.4 2.7zm-29.4-1.1c0 .8-.4 1.5-1 1.5-.5 0-1-.7-1-1.5s.5-1.5 1-1.5c.6 0 1 .7 1 1.5zm-77.7 4.5c1.1 0 3.3.7 5 1.4 1.8.8 4.6 1.6 6.2 1.8 2.3.2 3.1.9 3.3 2.6.2 1.3 1 2.6 1.8 2.9 1.6.6 1.9 2.3.4 2.3-.6 0-2-1.6-3.1-3.5-1.9-3.2-2.5-3.5-6.7-3.5-4.7 0-12.1-3-17.2-7.1-2-1.6-1.5-1.5 3 .6 3 1.4 6.3 2.5 7.3 2.5zm-28.5-1.4c.3 4.4 3.2 9.1 8.6 14.2 4.3 4 6.3 5.2 10.8 6.1 3.1.7 6.6.9 7.9.6 1.5-.4 3.2 0 4.4 1 1.9 1.4 1.7 1.5-2.4.8-3.2-.4-4.2-.3-3.7.5.4.7 1.6 1.2 2.6 1.2s2.2.5 2.5 1.1c.9 1.4-.4 2.7-1.3 1.3-.7-1.2-6.8-3.4-14.2-5.4-6.3-1.6-17-12.7-17-17.6 0-1.8-.3-3.9-.6-4.8-.4-1-.1-1.6.8-1.6.7 0 1.5 1.1 1.6 2.6zm71.7-.5c1.1.5 2.7 1.3 3.5 1.8.8.4 5.4 2.7 10.1 5 11 5.3 16.1 9.7 19.6 16.9 2.8 5.7 3.2 7 3.7 12.7.2 1.6.4 3.2.5 3.5.1.3.4 2.2.7 4.2.4 3 .1 3.8-1.1 3.8-.8 0-2.1-1.1-2.7-2.5-.6-1.4-1.7-2.5-2.4-2.5-1.3 0-2.6-2.5-1.7-3.3.2-.3 1.3.3 2.4 1.4 1 1 2.3 1.9 2.9 1.9 1 0-.7-2.4-4.5-6.4-3-3.2-2.8-4.8.6-4.2 1.6.2 2.7 0 2.3-.5-.3-.5-1-.6-1.6-.3-.8.5-.9.1-.5-1 .4-1 .3-1.5-.3-1.1-.6.3-1-.1-1-.9s-.8-2.1-1.9-2.8c-2.5-1.8-7.1-8.7-7.1-10.7 0-1-.8-1.7-1.9-1.7-1.5 0-1.7.3-.9 1.3.7.9.7 1.3-.1 1.3-.6 0-1.2-.5-1.2-1-.1-.6-.3-1.3-.4-1.8-.2-.4-.6-1.7-1-3-.4-1.2-1.5-2.2-2.4-2.2-1.7 0-18.6-8.1-20-9.6-.6-.7 3.1.3 6.4 1.7zm-61.5.4c0 .8-.9 1.5-2 1.5s-2-.7-2-1.5.9-1.5 2-1.5 2 .7 2 1.5zm31 0c0 .8-.4 1.5-1 1.5-.5 0-1-.7-1-1.5s.5-1.5 1-1.5c.6 0 1 .7 1 1.5zm77 1.1c0 2 1.4 1.8 3.5-.6 2.2-2.4 4.8-2.6 6.6-.4 1.1 1.4 1 1.8-.5 3-1.1.7-2.2 1.1-2.6.9-.3-.2-1.3.5-2 1.6-1.7 2.2-3.5 2.6-2.7.5.4-1 .1-1.3-.9-.9-.7.3-1.4 0-1.4-.7s-.7-1.8-1.7-2.5c-.9-.7-1.3-1.7-.9-2.4.9-1.4 2.6-.5 2.6 1.5zm-25.2 2.6c-.3 2.5-1.7 3.2-3.7 1.9-1.2-.8-1.2-1.2-.2-2.5 2-2.4 4.3-2 3.9.6zm17.4.7c-.3 2-.8 2.8-1.8 2.4-1.8-.7-1.8-1.2.3-3.5s2-2.3 1.5 1.1zM179 117c0 .5-.2 1-.4 1-.3 0-.8-.5-1.1-1-.3-.6-.1-1 .4-1 .6 0 1.1.4 1.1 1zm50.2.8c.6.6-2 1.1-6.1 1.4-4.2.3-8.1 1.2-9.7 2.2-1.4 1-2.8 1.5-3.1 1.2-.9-.9 1.8-3.6 3.6-3.6.9 0 2.3-.5 3.1-1 1.1-.7.7-1-1.7-1-1.7 0-3.8.7-4.7 1.5-2 2-2.6 1.9-2.6-.7 0-2.1.2-2.1 10.2-1.5 5.6.4 10.5 1 11 1.5zm-72.7.2c.3.5.1 1-.4 1-.6 0-1.1-.5-1.1-1 0-.6.2-1 .4-1 .3 0 .8.4 1.1 1zm40.6 2.7c1.3 1.6 1.2 1.7-.3.4-1-.7-1.8-1.5-1.8-1.7 0-.8.8-.3 2.1 1.3zm5.9 1.8c0 1.9-2.7 3.8-3.5 2.5-.3-.5-.1-1 .5-1 .8 0 1-.9.5-2.7-.5-2.3-.4-2.5.9-1.4.9.8 1.6 1.9 1.6 2.6zm76.6.3c-2.1 2.2-2.8 2.4-3.8 1.3-.9-.9-1-1.5-.2-1.8.6-.2 2-1 3-1.7 3.1-2.3 3.8-.6 1 2.2zm-10.6-.7c0 1.1-.4 1.7-1 1.4-.5-.3-1-1.3-1-2.1s.5-1.4 1-1.4c.6 0 1 .9 1 2.1zm45.6 1.3c3.4 3.4 4.3 5.6 2.4 5.6-.5 0-1-.4-1-.8s-1.5-2.5-3.4-4.5c-4.2-4.6-2.6-4.9 2-.3zM155 124.6c0 .3-.7.1-1.5-.6s-1.5-1.7-1.5-2.2c0-.5.7-.3 1.5.6.8.8 1.5 1.8 1.5 2.2zm133.1-.3c-.8.8-1.1.7-1.1-.4 0-2 1.3-3.4 1.8-1.9.3.7-.1 1.7-.7 2.3zm-4.8 3.4c-.9.7-2.3 1.3-3 1.3-1.9 0-1.6-3.1.5-4.6 1.4-1.1 1.9-1 3 .4s1 1.9-.5 2.9zM159 125c0 .5-.4 1-1 1-.5 0-1-.5-1-1 0-.6.5-1 1-1 .6 0 1 .4 1 1zm25.1.4c.5-.3.9 0 .9.5 0 1.7-4.6 1.3-6-.4-1.1-1.4-1-1.4 1.4-.5 1.5.5 3.2.8 3.7.4zm37.9-1c0 .3-.4.8-1 1.1-.5.3-1 .1-1-.4 0-.6.5-1.1 1-1.1.6 0 1 .2 1 .4zm21.3.2c.6.6-2.4 6.2-5.5 10.3-1.1 1.4-1.6 3.2-1.2 4.3.9 2.9-.4 6.8-2.4 6.9-1.6.1-1.6.2.1.6.9.2 1.5.9 1.1 1.4-.3.5-1 .7-1.5.4-.5-.4-.9-.2-.9.4 0 .5.6 1.2 1.3 1.5.6.4.2.4-1 .2-1.3-.2-2.3 0-2.3.5s.5.9 1.1.9c.6 0 1.9 1 2.9 2.2l1.7 2.2.7-2.2c.4-1.2 1-2.2 1.4-2.2 1.2 0 5 11 4.1 11.6-1.4.8-1 2.4.6 2.4.9 0 1.5.9 1.5 2.2 0 1.9-.2 2-1 .8-.8-1.3-1-1.3-1-.1 0 2.1-1.3.5-4.6-5.9-3.3-6.5-6.2-10-8.2-10-.9 0-.6.7.9 2 1.3 1 2 1.9 1.5 2-.6 0-2.3-1.2-3.8-2.7-2.4-2.3-2.8-2.4-2.8-.9 0 1.4-.6 1.7-2.5 1.4-1.4-.3-2.5-.2-2.5.1 0 .4-1.5 1.3-3.2 2.1-1.8.7-3.7 1.6-4.2 1.8-2.2 1.2 1.1-2.3 5.7-6 2.9-2.2 7-6.6 9.1-9.7 2.2-3.1 5.6-7.7 7.8-10.2 3.7-4.4 4.7-6.4 2.9-5.7-.5.1-3.2 3.4-6.2 7.3-2.9 3.8-5.6 7.1-6.1 7.3-.4.2-.8 1-.8 1.8 0 1.5-12.7 12.4-14.5 12.4-.6 0-2.2-1.1-3.5-2.5l-2.3-2.5 4.1-4c2.3-2.2 7-5.8 10.5-8.1 3.4-2.3 7.8-5.6 9.7-7.4 7-6.4 11.5-8.7 13.3-6.9zM206 126c-2 1.3-3.3 1.3-2.5 0 .3-.6 1.4-1 2.3-1 1.5 0 1.5.2.2 1zm10.5 0c-2.7 1.2-4.3 1.2-2.5 0 .8-.5 2.2-.9 3-.9 1 0 .8.3-.5.9zm-60.5 1c0 .5-.2 1-.4 1-.3 0-.8-.5-1.1-1-.3-.6-.1-1 .4-1 .6 0 1.1.4 1.1 1zm9.5 0c.3.5.1 1-.4 1-.6 0-1.1-.5-1.1-1 0-.6.2-1 .4-1 .3 0 .8.4 1.1 1zm108.2.9c-.3 1.4 0 1.7 1.2 1.4 2.1-.5 4.5 2.1 3.7 4.2-.3.9 0 1.5.7 1.5.8 0 2.1 1.6 3 3.5 1.7 3.6 3.4 4.4 5.5 2.3.9-.9 1.2-.8 1.2.4 0 2.7-5 2.9-7.4.3-7.6-8-13.2-16.2-9.6-14 .6.3 1 .1 1-.4 0-.6.3-1.1.6-1.1.4 0 .4.8.1 1.9zm-112.2.1c.3.5-.1 1-1.1 1-1.4 0-1.5.3-.3 1.7 1.2 1.7 1.2 1.7-.5.1-1-.9-1.5-2.1-1.2-2.7.9-1.4 2.3-1.4 3.1-.1zm129.2 3.1c.7 1.9 1.2 5.1 1.2 7.2.1 3 .6 4 2.6 4.9 1.4.6 2.5 1.5 2.5 2 0 1.2-1.4 1-2.8-.4-2-2-2.6.1-.7 2.2 1 1.1 1.4 2 .9 2-1.7 0-3.4-2.3-3.4-4.7 0-1.3-.4-3.1-1-4.1-1.5-2.7-3.9-12-3.2-12.6 1.2-1.3 2.7.1 3.9 3.5zm-39.7 6.1c2.4 9.4 3.9 12.6 7.5 16.3 1.9 1.9 1.9 2 .2 2.3-1.4.3-1.7 1-1.3 2.8.4 1.3.3 2.4-.2 2.4-1 0-4.6-8-5.7-12.5-.7-2.7-.8-2.8-1.5-1-.5 1.1-.9 1.5-.9 1-.1-.6-.7.1-1.5 1.5-1.7 3.4-.7 4.8 1.4 2l1.8-2.3v2.6c0 1.5-.4 2.7-.9 2.7s-.9.4-.9.9.8.7 1.8.5c1.2-.4 2.2.6 3.5 3.8 2.1 4.7 4.3 15.6 3.3 16.5-1 1.1-3.6-1.9-3.6-4.3 0-3.6-3.8-12.4-7.4-17.3-3.6-4.8-3.2-2.9.8 4.5 3.7 6.6 6.3 14 5.3 15-.7.8-4.7-1.4-4.7-2.6 0-2.7-7.6-21-8.6-21-.7 0-1.8.8-2.3 1.7-1.4 2.4-1.3 2 .4-6.4.8-3.9 1.3-8 1-9-.3-1 .2-.3 1 1.4 2.4 5.3 2.8 4.2 1-2.8-.4-1.8 0-3.3 1.4-5 1-1.3 2.2-2.1 2.6-1.8 1.4 1.5 3.4 11.4 2.5 12.3-1.4 1.4-1.2 2.3.6 3 1.5.6 1.6 0 1.1-4.7-.4-2.9-1-6.7-1.3-8.5-.4-1.8-.2-3.2.3-3.2s2 4.2 3.3 9.2zm-61.5-7.2c-.7 1.1-5.5.9-5.5-.2 0-.4 1.4-.8 3.1-.8 1.7 0 2.8.4 2.4 1zm10.7.4c2.2 0 3.3.3 2.5.8-2 1.3-6.1.8-8.2-.9l-2-1.6 2 .9c1.1.4 3.7.8 5.7.8zm16.8-.4c0 .5-.4 1-1 1-.5 0-1-.5-1-1 0-.6.5-1 1-1 .6 0 1 .4 1 1zm38.5 6.8c-.8 3.7 1 8.2 3.2 8.2 1.3 0 1.4-.3.5-1.2-.8-.8-.8-1.5-.1-2.4.8-.9.5-1.1-1-.7-2.3.6-2.6-.3-1.1-2.7 1.4-2.2 2.8-.3 4.5 6.4 1.8 6.9 1.8 6.3-.1 7-3.2 1.2-9.7-11-8.2-15.6.3-.7-.1-1.9-.9-2.6-.7-.7-1.3-2-1.3-2.9 0-1.2.7-.9 2.6 1 2 2.1 2.4 3.2 1.9 5.5zm-84.9-4.7c1.9 2.2 1.9 2.2-.3 1-1.3-.6-2.3-1.6-2.3-2.1 0-1.5.5-1.2 2.6 1.1zm113.9-1.1c-.3.5-1 1-1.6 1-.5 0-.9-.5-.9-1 0-.6.7-1 1.6-1 .8 0 1.2.4.9 1zm36.5 1.8c0 1.5-.2 1.5-1 .2-1.3-2-1.3-3.3 0-2.5.6.3 1 1.4 1 2.3zm-107-.3c0 .8-.4 1.5-1 1.5-.5 0-1-.7-1-1.5s.5-1.5 1-1.5c.6 0 1 .7 1 1.5zm99 .4c1.4 2.7 1.3 3.1-1 3.1-2.1 0-2.8-1.9-.7-2.1 1 0 1-.2 0-.6-1.5-.6-1.7-2.3-.3-2.3.5 0 1.4.9 2 1.9zm12.7-.3c.3.8.1 2-.4 2.5-.7.7-1.2.2-1.5-1.5-.6-2.8.9-3.6 1.9-1zM211 135.1c0 .6-.4.8-.9.4-.5-.3-1.1.3-1.4 1.2-.4 1.7-.4 1.7-1.2-.1-.5-1.2-.3-2.1.6-2.6 1.5-1 2.9-.4 2.9 1.1zm87.4-1.5c.9.3 1.6 1.1 1.6 1.6 0 .6-.6.8-1.4.5-.7-.3-1.9 0-2.5.6-1.6 1.6-2.6 0-1.1-1.8 1.4-1.7 1.3-1.7 3.4-.9zM177.5 135c1.3.5 1.4.9.5.9-.8 0-2.4-.4-3.5-.9-1.3-.5-1.4-.9-.5-.9.8 0 2.4.4 3.5.9zm23.8.1c-.8.8-1.6.8-3 0-1.6-.9-1.4-1 1.2-1.1 2.1 0 2.6.3 1.8 1.1zM183 137c0 .5-.4 1-.9 1-.6 0-1.3-.5-1.6-1-.3-.6.1-1 .9-1 .9 0 1.6.4 1.6 1zm116.4 1.6c1.1 2.8.7 3.4-2.4 3.4-3.4 0-3.9-1.6-1.2-3.6 2.2-1.8 2.9-1.7 3.6.2zm-120.8 3.1c-1.1 1.1-1.9-.6-1.1-2.4.8-1.7.8-1.7 1.2 0 .3 1 .2 2.1-.1 2.4zm8.6-2.2c0 .5-.5 1.1-1.1 1.3-.6.2-1.1-.4-1.1-1.3s.5-1.5 1.1-1.3c.6.2 1.1.8 1.1 1.3zm15.9 2.6c-1.7 1.8-3.3 3-3.7 2.7-.3-.4.9-2 2.8-3.6 4.3-3.9 4.8-3.4.9.9zm108.4-3.1c-.3.5-1 1-1.6 1-.5 0-.9-.5-.9-1 0-.6.7-1 1.6-1 .8 0 1.2.4.9 1zm12.5 0c0 .5-.5 1-1.1 1-.5 0-.7-.5-.4-1 .3-.6.8-1 1.1-1 .2 0 .4.4.4 1zm-125.4 1.5c-.8.8-1.7 1.5-2 1.5-.3 0-.6-.7-.6-1.5 0-.9.9-1.5 2.1-1.5 1.8 0 1.9.2.5 1.5zm122.4.5c0 .5-.2 1-.4 1-.3 0-.8-.5-1.1-1-.3-.6-.1-1 .4-1 .6 0 1.1.4 1.1 1zm-112.4 3.7c-.3.3-1.3 0-2.2-.8-1.5-1.2-1.4-1.4.3-2 1.7-.6 3.2 1.5 1.9 2.8zm-28.4 4.7c-2.2 8.4-2.3 9.6-1 9.6.7 0 .5.5-.5 1.1-1.9 1.1-1.5 4.6.7 6.2.7.6.4.7-.6.3-1.2-.3-1.8 0-1.8.9 0 1.8 2.5 1.9 6.8.4 2.5-.9 3.9-.7 7.8 1 5.6 2.5 5.3 3.7-.6 2.1-2.4-.6-6.1-1.1-8.4-.9-7.8.4-7.6.5-7.6-6.4 0-6.6 1.1-11.7 3.8-18.1 2.1-4.7 2.9-2.4 1.4 3.8zm4.8-4.4c0 1.1-.6 2-1.4 2-.9 0-1.2-.7-.9-2 .3-1.1.9-2 1.4-2 .5 0 .9.9.9 2zm116.5.7c1.3 4.8 1.5 8.3.5 8.3-.5 0-1-1.5-1.2-3.3-.2-2.1-.8-3.1-1.7-2.9-.9.2-1.1-.3-.7-1.3.3-.9.6-2.1.6-2.6 0-2 1.8-.7 2.5 1.8zm-12.8 1.9c.1 1.9.4 5.1.7 7 1 5-.9 4.1-2.4-1.1-.7-2.5-2-5-2.9-5.5-1.3-.8-1.2-.9.7-1 1.2 0 2.1-.3 2.1-.8-.2-1.4.1-2.2.9-2.2.4 0 .8 1.6.9 3.6zM195 147c0 .5-.2 1-.4 1-.3 0-.8-.5-1.1-1-.3-.6-.1-1 .4-1 .6 0 1.1.4 1.1 1zm11 0c0 .5-.7 1-1.5 1s-1.5-.5-1.5-1c0-.6.7-1 1.5-1s1.5.4 1.5 1zm74.5 0c.3.5.1 1-.4 1-.6 0-1.1-.5-1.1-1 0-.6.2-1 .4-1 .3 0 .8.4 1.1 1zm-81.9 2.7c-1 1-1.9-.5-1-1.8.6-1.1.8-1.1 1.2 0 .2.7.1 1.5-.2 1.8zm-14.8.6c1.3 1.5-.1 4.2-1.7 3.3-1.3-.8-1.5-4.6-.2-4.6.5 0 1.3.6 1.9 1.3zm93.7 4.3c.4 3.5.4 3.6-.4.9-.5-1.7-1.2-3.9-1.6-5-.6-1.5-.5-1.7.4-.9.6.6 1.4 2.8 1.6 5zm5.3-3.8c.2.7-.3 1.2-1.2 1.2-.9 0-1.6-.7-1.6-1.6 0-1.7 2.2-1.4 2.8.4zm15.2.2c1.2.8 1.2 1-.5 1-1.5 0-1.7.2-.6.9.8.5.9 1.1.3 1.5-.6.3-1.8-.1-2.7-1-1.3-1.4-1.4-1.9-.3-2.5 1.7-1.1 2-1.1 3.8.1zm-97 3c0 .5-.4 1-1 1-.5 0-1-.5-1-1 0-.6.5-1 1-1 .6 0 1 .4 1 1zm10 6.1c0 .4-.9 2.4-2.1 4.3-1.8 3.1-2.3 3.4-4 2.3-1-.6-1.9-1.7-1.9-2.4s-.5-1.3-1.1-1.3c-.6 0-.9-.6-.6-1.4.3-.8 0-1.6-.8-1.8-1-.2-.7-1.2 1.3-3.5l2.7-3.2 3.3 3.2c1.7 1.7 3.2 3.4 3.2 3.8zm75-6.1c0 .5-.4 1-1 1-.5 0-1-.5-1-1 0-.6.5-1 1-1 .6 0 1 .4 1 1zm35.7 1c.1 1.1-.2 2-.8 2-1 0-1.2-2.3-.2-3.3.9-.9.9-1 1 1.3zm-139.3 2.1c-.3.5-1 .7-1.5.3-.5-.3-.7-1-.3-1.5.3-.5 1-.7 1.5-.3.5.3.7 1 .3 1.5zm119.1.4c0 1.4-.3 2.5-.7 2.5-1.1 0-2.8-3.6-2.1-4.4 1.4-1.4 2.8-.5 2.8 1.9zm-68.8 1.4c.7-.1 4.5 6.8 6.9 12.3 1 2.3.9 2.5-1.8 2.6-1.5 0-3.7.4-4.9.7-2.1.7-5.6-2-7.8-6.2-1-2-.8-2.5 3-5 5-3.3 3.6-4.2-2.2-1.4-4 1.9-4.4 2-6.1.4-2.5-2.3-2.3-2.9 2-4.6 3.2-1.3 4.2-1.3 7-.1 1.8.7 3.5 1.3 3.9 1.3zm32 1.6c2.1 4.3 1.1 5.5-2.5 2.8-3.5-2.6-4.2-6.3-1.3-6.3 1.4 0 2.7 1.2 3.8 3.5zm21.8-2.5c-.3.5-1.7 1-3.1 1-1.3 0-2.4-.5-2.4-1 0-.6 1.4-1 3.1-1 1.7 0 2.8.4 2.4 1zm-95.1 1.5c.3.8.1 1.5-.4 1.5-.6 0-1-.7-1-1.5s.2-1.5.4-1.5.6.7 1 1.5zm104.4-.4c1.6.6 4.2 2.7 5.6 4.8 1.5 2.1 4 5 5.6 6.6 2.3 2.2 2.7 3.2 1.9 4.2-1.7 2-2.6 1.6-3.8-1.7-.5-1.7-1.5-2.9-2.1-2.8-.6.2-2.3-1.5-3.8-3.7-2.4-3.4-3.6-4.1-7.7-4.9l-4.8-.9 2.9-1.3c1.6-.7 2.9-1.3 3-1.3.1-.1 1.5.4 3.2 1zm11.5.4c-.6 1.8-3.4 1.6-4.1-.3-.2-.7.6-1.2 2.2-1.2 1.9 0 2.4.4 1.9 1.5zm-118.9 2.2c1 2.6 0 2.5-1.8-.1-1.3-2-1.3-2.4-.2-2 .8.3 1.7 1.3 2 2.1zm91.5 3.1c.1 1.2.7 2.5 1.4 2.8 1.8.6 1 7.4-.9 7.4-1 0-1.4-1.3-1.4-4.3 0-2.3-.3-6-.5-8.2-.4-3-.3-3.5.4-2 .5 1.1 1 3 1 4.3zm41.7 1c-1.3 1.2-1.7-.8-1-4l.9-3.3.3 3.3c.2 1.9.1 3.6-.2 4zm-49.5-4.8c1 .6 1.9 1.5 1.9 2 0 1.4-3.4 1.2-4.8-.2-2.6-2.6-.7-3.7 2.9-1.8zm-90.1.9c0 .5-.7 1.1-1.5 1.5-.9.3-1.5 0-1.5-.9 0-.8.7-1.5 1.5-1.5s1.5.4 1.5.9zm37.5 2.8c3.5 2.8 3.8 5.1.5 3.3-1.3-.7-2.1-.7-2.6.2-.4.6-.3.8.4.4.6-.3 1.3-.2 1.6.3.4.6-.9.8-2.9.6-2.2-.2-4.1.3-5 1.2-1.3 1.3-1.6 1.3-2.1 0-.6-1.8 2-7.3 3.8-8 2.3-.9 2.8-.7 6.3 2zm-32.5.4c0 .5-.4.9-1 .9-.5 0-1-.7-1-1.6 0-.8.5-1.2 1-.9.6.3 1 1 1 1.6zm76 4.5c0 1.4-.7 2.7-1.5 3.1-2 .7-2.1.6-2.9-4.5l-.6-4.3 2.5 1.7c1.5 1 2.5 2.6 2.5 4zm12-2.6c0 .9-4.3.6-5.7-.3-2.5-1.6-1.2-2.4 2.2-1.3 1.9.6 3.5 1.3 3.5 1.6zm15.2-1.3c.9 1 3.1 4.9 5 8.8 3.5 7.5 4.1 14.1 1.2 15.2-.8.3-4.8.2-8.9-.2-6.3-.6-7.5-1-8.1-2.8-.4-1.4-.1-2.5 1.2-3.4 1-.7 1.3-1.3.7-1.3-1.8 0-3.6 2.9-3 5.1.3 1.3.1 1.9-.6 1.6-2-.6-1.9-5.2 0-7.6 1.3-1.6 3.4-2.4 7.3-3 8.2-1.1 8.4-1.4 5.4-7.2-2.2-4.5-2.8-5-5-4.5-3 .8-3.2-.2-.1-1.4s3.2-1.2 4.9.7zm5.5-.2c.8 2.2-.6 3.3-1.7 1.5-1.3-2-1.2-3 0-3 .6 0 1.3.7 1.7 1.5zm-89.7 5.4c1.3 1.1 1.1 1.3-1.2.9-1.5-.3-2.5-.1-2.2.3.8 1.3-.5 1.1-2-.4-1.2-1-1.1-1.5.3-2.8 1.2-1.2 1.9-1.4 2.6-.5l2.5 2.5zm94.2 1.7c.8 1.9 1.2 5 1 6.7l-.5 3.2-.8-2.7c-.4-1.5-1.4-3.7-2.3-5-.9-1.2-1.6-3-1.6-4 0-3.1 2.7-1.9 4.2 1.8zm-85.2-1.2c0 .8-.4 1.7-.9 2.1-.6.3-.9-.4-.8-1.5.1-2.3 1.7-2.8 1.7-.6zm31 1.7c0 .6-.4.7-1 .4-.5-.3-1-1.1-1-1.6 0-.6.5-.7 1-.4.6.3 1 1.1 1 1.6zm67.5-1.1c-.3.5-1.1 1-1.6 1-.6 0-.7-.5-.4-1 .3-.6 1.1-1 1.6-1 .6 0 .7.4.4 1zm-50.5 2.4c0 .2.3 1.1.6 2 .4 1.2 0 1.6-1.5 1.6-1.4 0-2.1-.6-2.1-2 0-1.1.7-2 1.5-2s1.5.2 1.5.4zm-80 1.6c0 .5-.4 1-1 1-.5 0-1-.5-1-1 0-.6.5-1 1-1 .6 0 1 .4 1 1zm10.1 1c.5 0 .9.4.9 1 0 .5-1.1 1-2.5 1-1.6 0-2.5-.6-2.5-1.6 0-1.1.5-1.4 1.6-1 .9.3 2 .6 2.5.6zm118.9 2.1c0 1-.6 1.9-1.3 1.9-2.2 0-2.7-1.1-1.6-3.2 1.2-2.2 2.9-1.5 2.9 1.3zm10-1.1c0 .5-.4 1-1 1-.5 0-1-.5-1-1 0-.6.5-1 1-1 .6 0 1 .4 1 1zm-15.6 2.6c.3.9.4 2 .1 2.4-.3.5.1 2.6 1 4.6 1.9 4.5 1.9 5 0 3.4-.8-.7-1.5-2.1-1.5-3.1s-.7-2.2-1.6-2.7c-1.2-.7-1.5-1.7-1-3.6.7-2.9 2.1-3.4 3-1zm-32.1.8c.4 1 .1 1.3-.9.9-.7-.3-1.4-.9-1.4-1.4 0-1.4 1.7-1 2.3.5zm46.2.6c.3.5.1 1-.4 1-.6 0-1.1-.5-1.1-1 0-.6.2-1 .4-1 .3 0 .8.4 1.1 1zm-148.9.9c-1 1.6 2 2 6.3.9 2.3-.6 4.4-.8 4.8-.5.3.4-.5 1.9-1.8 3.5s-2.9 3.8-3.6 4.8c-.8 1.2-.7.4.2-2.4.8-2.3 1-4.2.6-4.2-1.3 0-2.1 2.7-3.1 10-.5 3.6-1.1 7.9-1.5 9.6-.6 2.5-.3 3.2 1.7 4.1 1.2.7 1.7 1.2 1.1 1.2-2.3.2-1.4 2.1 1 2.1 1.2 0 2.9.5 3.7 1 1 .6.4.8-2.1.4-2.2-.4-3.9-.2-4.3.5-.5.7.3 1.1 2 1.1 2.7 0 2.7.1.8 1.5-1.8 1.4-1.7 1.4 1.6 1.5 2.7 0 3.1.3 1.8 1-.9.6-3 .7-4.7.4-2.5-.5-2.9-.9-2-2 .9-1.1.8-1.4-.6-1.4-1 0-1.5-.6-1.2-1.3 1.4-3.9 1.7-5.7.9-5.7-.5 0-1.4 1.5-2 3.2-1.1 3.1-1.1 3-.6-1.7.2-2.8.9-8.3 1.4-12.2.5-4 .7-8 .4-8.8-.4-.8-.1-1.5.5-1.5s1.1-.5 1.1-1.1c0-.5-.4-.8-.9-.5-.5.3-1.1-.1-1.5-.9-.3-.8-1.5-1.5-2.6-1.5-2.4 0-8.1 2.7-9.2 4.4-.6.8-.8.8-.8 0 0-1.6 2.4-3.4 6.7-5 4.5-1.6 6.6-1.8 5.9-.5zm79.4-.5c0 1.1-1.9 1.5-2.5.6-.3-.5.1-1 .9-1 .9 0 1.6.2 1.6.4zm-38.6 2.2c.3.9.3 2 0 2.5-.8 1.3-3.4-.9-3.4-2.7 0-1.9 2.6-1.8 3.4.2zm14.6 1.1c-1.4 1-2.9 1.7-3.4 1.5-.5-.2-.4.4.3 1.2.7.9 1.8 1.3 2.4.9.6-.3.7-.1.3.6-.4.6-1.2.8-1.8.5-.6-.4-.5.2.1 1.5.7 1.2.8 2.1.4 2-.4-.1-1.5-.1-2.3 0-1.3.1-1.3.2 0 1.1 1.2.7 1.2 1.2.3 2.1-1.5 1.5-2 1.1-2.5-2.1-.1-1.4-.7-2.8-1.3-3.2-1.1-.8 1.9-4.4 5.4-6.2 3.7-2 5-1.9 2.1.1zm29-.2c0 .8-.4 1.5-1 1.5-.5 0-.7-.7-.4-1.5.4-.8.8-1.5 1-1.5.2 0 .4.7.4 1.5zm-86.1 2.2c0 1-1.1 5.8-2.3 10.8-2.2 8.3-2.4 8.7-2.7 5-.2-2.2-.1-6 .2-8.5.4-2.5.3-5-.3-5.7-.6-.8-.3-1.5.9-2.2 2.7-1.6 4.3-1.3 4.2.6zm87.8 1.5c-.3.8-.6.5-.6-.6-.1-1.1.2-1.7.5-1.3.3.3.4 1.2.1 1.9zm5.6 4.9c1.3 3.7 1.6 6.9 1.2 10.4-.4 3.5-.3 4.6.5 3.5.5-.8 1-3.2 1-5.3 0-3 .4-3.7 2-3.7 1.1 0 2-.5 2-1 0-.6.9-1 2-1 2.4 0 2.8 3.5.4 4.4-2.3.9-3.6.7-2.9-.4.3-.6.1-1-.4-1-.6 0-1.1.9-1.1 1.9 0 1.1-.3 2.7-.7 3.7-.6 1.6-.4 1.6 2-.2 3.5-2.8 11.5-5 12.9-3.6 1.5 1.5 3.7 11.7 2.8 13.3-.4.8-1.3 6.1-1.9 11.9-1.3 10.8-2.8 17-4.6 18.2-.6.5-.4.8.4.8 1.1 0 .9.6-.6 2.2-1.1 1.3-2.7 4-3.4 6-.7 2.1-1.9 3.8-2.6 3.8-.7 0-1 .6-.7 1.4.7 1.8-2 6.2-6.4 10.4-3.5 3.4-7.7 11.3-10.2 19-.7 2.3-1.5 4-1.8 3.8-.5-.6 2.9-10.3 7.5-21.6 4-9.6 4-9.9 5.5-19.6 1.3-8.6.8-10.8-3.2-15.4l-3.1-3.5 2.5 4c2.1 3.1 2.6 5.2 2.6 10 0 7.1-.9 10.7-6 24-2.1 5.5-5.3 13.8-7 18.3-3.7 9.9-5 12.2-7 12.2-1.3 0-1.3.1 0 1 1.1.7 1.2 1.2.4 2-1.4 1.4-3.1-.6-4.4-4.9-.9-3.4.3-4.2 1.9-1.4 1.2 2.1 2.4 1.3 1.5-1.1-.3-.9-1.3-1.6-2.1-1.6-1 0-1.3-.6-.9-1.6.3-.9.6-1.9.6-2.4 0-1.6 4.5-1.5 5.8 0 1.1 1.3 1.2 1.2 1-.5-.3-2.9 1.2-10.3 2.8-13.9.7-1.7 1.3-2.7 1.4-2.1 0 .5.5.4 1.1-.2.5-.5 1.2-3 1.4-5.4.2-2.4.9-7.5 1.5-11.3.7-5 .7-7.9-.1-10.3-1.1-3.4-9.6-16.5-11.1-17.1-.4-.2-.8-1-.8-1.8 0-.9.4-1.3.9-1 .5.4.7-.4.4-1.5-.6-2.1-.6-2.1 2.2-.3l2.8 1.8-1.4-2.2c-.8-1.2-2.4-2.5-3.8-3-2.2-.7-2.1-1 3.9-6.6 3.5-3.2 7.4-6.2 8.8-6.7 2.4-.9 2.5-1.2 1.8-7.7-.4-3.7-.9-8.2-1.3-10.1-.9-5.5 1.9-3.3 4 3zM151.5 190c.3.5.1 1-.4 1-.6 0-1.1-.5-1.1-1 0-.6.2-1 .4-1 .3 0 .8.4 1.1 1zm105.7 4.5c1 1.9.9 1.9-1.3-.1-1.3-1.2-3.4-2.5-4.7-2.9-1.2-.3-2-1.1-1.6-1.6.7-1.3 6.3 2.1 7.6 4.6zM297 192c0 .6 1.1 1.5 2.4 2 2.4.9 5.5 5 3.9 5-1.1 0-8.3-6.3-8.3-7.3 0-.4.5-.7 1-.7.6 0 1 .5 1 1zm-5.3 2.2c-.3.8-.6.5-.6-.6-.1-1.1.2-1.7.5-1.3.3.3.4 1.2.1 1.9zm-45.7.7c0 1.3-2.8 2.2-3.5 1.1-.3-.4.1-1.1.7-1.3 2-.8 2.8-.8 2.8.2zm35.8 1.2c.2 1.1-.8 2.1-2.9 2.8-1.8.6-3.3 1.1-3.4 1.1-.1 0-.1-.9 0-2.1.3-3.7 5.6-5.2 6.3-1.8zM161 196c0 .5-.4 1-1 1-.5 0-1-.5-1-1 0-.6.5-1 1-1 .6 0 1 .4 1 1zm21 0c1.3.9 1.3 1 0 1-.8 0-2.2-.5-3-1-1.3-.9-1.3-1 0-1 .8 0 2.2.5 3 1zm-11.9 2.3c-1 .9-1.1.8-.5-.6.3-1 .9-1.5 1.2-1.2.3.3 0 1.1-.7 1.8zm69.5-.8c-1.1.8-2.2 1.2-2.5.9-.6-.6 1.9-2.4 3.4-2.4.6.1.1.7-.9 1.5zm14.4-1.1c0 .3-.4.8-1 1.1-.5.3-1 .1-1-.4 0-.6.5-1.1 1-1.1.6 0 1 .2 1 .4zm-93 2.6c0 .5-.4 1-.9 1-.6 0-1.3-.5-1.6-1-.3-.6.1-1 .9-1 .9 0 1.6.4 1.6 1zm97 1.5c0 .8-.7 1.5-1.5 1.5s-1.5-.7-1.5-1.5.7-1.5 1.5-1.5 1.5.7 1.5 1.5zm52.5-.5c.3.5.2 1-.4 1-.5 0-1.3-.5-1.6-1-.3-.6-.2-1 .4-1 .5 0 1.3.4 1.6 1zm1.5 8.2c0 .6-1-.2-2.2-1.8-3.8-5.1-4.1-6-.9-2.6 1.7 1.8 3.1 3.7 3.1 4.4zm-119.7-5.5c-.7.2-2.1.2-3 0-1-.3-.4-.5 1.2-.5 1.7 0 2.4.2 1.8.5zm20.5 2.9c2.3 1.9 4.2 4.3 4.2 5.1 0 2.3 5.7 10.8 9 13.6 1.5 1.3 3.2 3.3 3.9 4.4.9 1.8.7 2.2-1.7 2.8-1.5.4-3.9.9-5.4 1-1.5.1-4.4 1.7-6.4 3.4-2.6 2.3-4.2 3-5.7 2.6-1.7-.5-1.9-.4-.7.4.8.5 1.1 1.3.8 1.7-.4.3-2.1-.5-3.8-2-1.7-1.4-2.7-2.6-2.1-2.6.5 0 1.2.4 1.6.9.7 1.3 5.8.7 6.3-.8.2-.6-.3-1.1-1.1-1.1-2.4 0-4.8-3-4.2-5.1.4-1.1 0-2.6-1.1-3.6-2.2-2.2-1.4-12 1.5-16.8 1.1-2 1.6-3.7 1-4-.5-.4-1.2.1-1.5.9-.3.9-1 1.3-1.6 1-.5-.3-.4-1.1.3-2 .7-.8.7-1.4.1-1.4-.5 0-1.7 1-2.5 2.2l-1.6 2.3v-2.7c-.1-4.9 5.1-5.1 10.7-.2zM303 203c0 .5-.5 1-1.1 1-.5 0-.7-.5-.4-1 .3-.6.8-1 1.1-1 .2 0 .4.4.4 1zm11 1c0 .5-.2 1-.4 1-.3 0-.8-.5-1.1-1-.3-.6-.1-1 .4-1 .6 0 1.1.4 1.1 1zm-138.6 1.5c-.4.8-.8 1.5-1 1.5-.2 0-.4-.7-.4-1.5s.4-1.5 1-1.5c.5 0 .7.7.4 1.5zm130.2 4c.4.8 1.1 1.2 1.8.8.6-.4.6 0-.2.9-1 1.2-1 1.8-.1 2.3.6.4 1.5.1 2-.6.5-.8.9-1 .9-.6 0 .5-.9 2.1-2.1 3.5-1.2 1.5-1.6 2.8-1 3 .7.2.6.9-.3 1.8-2.2 2.1-2.6 1.7-2.6-2.1 0-2.1-.5-3.5-1.2-3.6-1 0-1-.2 0-.6 1.9-.8 1.4-2.2-.7-1.6-1.2.3-2-.2-2.4-1.6-.6-2.4-.5-2.6 2.8-2.9 1.5-.1 2.8.4 3.1 1.3zm-84.5 3.8c1.2 2.2 1.2 2.2-1 .3-1.1-1.1-2.1-2.3-2.1-2.8 0-1.4 1.9.1 3.1 2.5zm4.5-.6c1.8 2.4 1.7 3.3-.2 3.3-.8 0-1.3-.4-.9-.9.3-.5.1-1.2-.5-1.6-1.1-.7-1.4-2.5-.4-2.5.4 0 1.3.8 2 1.7zm4.2 6.9c-.4 2.3-3.7 3.1-4.9 1.2-.6-.9-.1-1.9 1.4-3 2.4-1.9 4.1-1 3.5 1.8zm7.7 2.4c.4.6-.7.5-2.6-.3-1.8-.7-3.5-1.9-3.7-2.6-.5-1.5 5.2 1.2 6.3 2.9zm54.5-2.6c0 .3-1.3 1.8-3 3.4-3.3 3.3-4 2.6-1.4-1.3 1.4-2.1 4.4-3.5 4.4-2.1zm-94.6 3.1c-.4.8-1.1 1.5-1.6 1.5-.6 0-.5-.6.2-1.5.7-.8 1.4-1.5 1.6-1.5.2 0 .1.7-.2 1.5zm-3.4.2c0 .5-1.6.8-3.5.9-2.2 0-3.1-.3-2.3-.8 1.6-1 5.8-1 5.8-.1zm113.8 1.8c-.2 1.7-.8 2.5-2 2.5-2.2 0-2.3-1.4-.2-3.4 2.1-2.2 2.4-2 2.2.9zm-12.3 2c0 2.5-.5 3.1-3 3.5-2.1.4-2.5.7-1.4 1.2 1.4.6 8.2-.9 12.3-2.7 1.3-.6 2.1-.5 2.4.3.2.6.9.9 1.6.6 2.3-.9-2.2 11.2-5.4 14.6-3.6 3.8-6.6 3.8-10.9-.2-3.2-2.9-3.4-3.4-3.4-9.4.1-7.5 2.2-11.7 5.6-11.2 1.7.2 2.2 1 2.2 3.3zm-121.2-.1c.4 1 .1 1.3-.8.9-.8-.3-1.2-.9-.9-1.4.7-1.2 1.1-1.1 1.7.5zm17.4-.8c-.3.3-1.2.4-1.9.1-.8-.3-.5-.6.6-.6 1.1-.1 1.7.2 1.3.5zm7.4 4.9c2.6 2.5 4.4 4.5 3.9 4.5-.6 0-1.9-.9-3-2-1.2-1.2-3.2-2.5-4.5-3-1.4-.5-2.5-1.6-2.5-2.5 0-2.3.9-1.9 6.1 3zm87.2.7c-.6 4.3-1 5.5-1.6 4.7-.7-.8.5-8.9 1.3-8.9.4 0 .6 1.9.3 4.2zm-114.4 2.7c.1 2.4.1 2.4 1.7.5 1.4-1.8 1.4-1.8.3.5-1.1 2.4-1.2 2.4-2.5.6-.8-1-1.4-3.3-1.3-4.9 0-2.7.2-2.8.9-1.1.5 1.1.9 3.1.9 4.4zm3.1-2.9c0 .5-.4 1-1 1-.5 0-1-.5-1-1 0-.6.5-1 1-1 .6 0 1 .4 1 1zm13.1 4.1c-1.2 1.9-2.1 3-2.1 2.6 0-1.4 3.1-6.9 3.6-6.4.3.3-.4 2-1.5 3.8zm7.9-2.3c0 .4-.9 1.3-2 2-1.6 1-2 1-2-.1 0-.8.3-1.7.7-2 .9-.9 3.3-.9 3.3.1zm35.4 3.4c-.3.4 1.6 2.4 4 4.4 2.9 2.4 4.8 4.9 5.2 6.8.3 1.7 1.1 3.7 1.6 4.3.6.7.8 1.3.5 1.3-1.3 0-5.7-2.4-5.7-3 0-.4-2.4-3.4-5.4-6.6-5.1-5.5-5.6-5.8-7.6-4.6-1.2.7-2.5 1.1-2.8.8-.6-.7-.9-.5 4.8-4.5 4-2.9 4.5-3 5.1-1.4.4 1 .5 2.1.3 2.5zm-30.4.8c0 .5-.7 1-1.6 1-.8 0-1.2-.5-.9-1 .3-.6 1-1 1.6-1 .5 0 .9.4.9 1zm16.3 4.5c-1 .8-2.7 1.4-3.8 1.4-1.7 0-1.4-.5 1.5-2.9 2.7-2.2 3.6-2.5 3.8-1.4.2.9-.5 2.2-1.5 2.9zm68.1.2c-.3 2.6-.9 5.3-1.5 5.9-.5.6-.6 1.3-.3 1.7.7.7-1.4 4.7-2.6 4.7-1.2 0-.7-4 .8-6.7.6-1.2.9-2.8.6-3.6-.3-.8-.1-1.8.5-2.2.6-.3 1.1-1.5 1.1-2.6 0-1 .5-1.9 1-1.9.6 0 .8 1.9.4 4.7zm-112.7-1.5c-.3.8-.6.5-.6-.6-.1-1.1.2-1.7.5-1.3.3.3.4 1.2.1 1.9zm19.3-.2c0 .5-.5 1-1.1 1-.6 0-2.4.9-3.9 2-1.6 1.1-3.1 1.6-3.4 1.1-.4-.5.3-1.2 1.4-1.6 1.1-.3 2-1 2-1.5 0-.7 1.7-1.5 4.3-1.9.4 0 .7.3.7.9zm-11.3 5.2c-.3.8-.6.5-.6-.6-.1-1.1.2-1.7.5-1.3.3.3.4 1.2.1 1.9zm37.3-.3c0 .5-1 1.3-2.2 1.7-2 .6-2 .7.8 1.9 1.6.7 4.3 2.8 6 4.7 2.7 3 3.1 4.1 2.9 8.8-.2 4.9-.4 5.5-2.8 6.3-1.9.6-5 .2-10.6-1.2-4.4-1.2-8.2-2.1-8.5-2.1-.2 0-1.1-1.9-2.1-4.2-1.1-2.8-1.3-4.4-.6-4.6.6-.2.9-.7.6-1.2-.5-.9 4.6-5 6.2-5 .5 0 2.3-1.4 4.1-3 3.3-2.9 6.2-3.9 6.2-2.1zm12.3 2.1c-.3 1.1-.7 2-.9 2-.2 0-.4-.9-.4-2s.4-2 .9-2 .7.9.4 2zm63.5 19.1l-.3 17.6 7.1 7.7 7.2 7.7-4.8 5c-2.6 2.7-6.3 8.1-8.3 12-3.4 6.5-7.2 12.7-8.7 13.9-.3.3-2.7 3.1-5.3 6.3-2.6 3.3-4.7 5.4-4.7 4.9 0-.6.7-1.7 1.5-2.6 1.4-1.3 1.1-1.6-2.5-2.7-2.2-.7-4.5-1.8-5.1-2.6-1.3-1.5-3.3-1.8-2.4-.3.3.5-.1 1-1 1s-1.5-.6-1.2-1.3c.2-.6-.7-1.9-2.1-2.9l-2.5-1.6 2.2-1.3c1.1-.8 2.1-1.7 2.1-2.2 0-.4-2.1.6-4.6 2.4-2.5 1.7-6.2 3.6-8.2 4.1-2 .6-5.4 2.4-7.5 4-2.1 1.7-4 2.8-4.3 2.5-.9-.9.6-2.7 2.9-3.8 1.2-.5 4.7-2.5 7.7-4.3 3-1.9 6-3.1 6.7-2.9.9.4 1.1 0 .7-1.1-.3-.9-.1-1.6.6-1.6.6 0 .8-.5.4-1.2-.5-.7-.1-.9 1.3-.6 1.2.3 2.7.2 3.4-.3 1.1-.8.9-1.3-1-2.9-1.6-1.4-1.9-2-.8-2 .8 0 2.9 1.4 4.7 3l3.3 3-2.3 2c-1.3 1.1-1.9 2-1.4 2 .6 0 1.5-.5 2.2-1.2.9-.9 1.8-.9 3.7 0 1.5.7 2.5.8 2.5.2 0-.6-.7-1-1.5-1s-1.5-.4-1.5-1c0-1.2-6-7.5-8-8.3-1.1-.4-1-.6.4-.6 2.3-.1 5.6 2.6 5.6 4.5 0 .8.6 1.1 1.5.8.9-.4 1.5 0 1.5 1 0 .8 1.1 1.8 2.5 2.2 1.3.3 2.3.9 2.2 1.3-.1.3.2.6.7.6.5 0 1-1.2 1.2-2.8.1-1.5-.2-2.7-.7-2.7-.5 0-.9.7-.9 1.5 0 2.4-1.1 1.8-6.9-3.6-5.8-5.5-5.8-6.3.7-7.5 2.1-.4 5.4 0 9.3 1.3 3.2 1.1 5.9 1.7 5.9 1.3 0-.4-3.5-1.7-7.7-3-9.1-2.8-9.2-2.8-7.3-4 2.2-1.4 3.6-1.2 5.5.6.9.9 1.8 1.4 2.1 1.1.3-.3-.6-1.3-2-2.2-3.7-2.5-6-1.3-16.1 8.5-8.4 8.1-17.9 14.9-19.1 13.7-.7-.6-3.9 2.4-4.7 4.4-.3.8-.6.5-.6-.9-.1-1.3.5-2.2 1.4-2.2.8 0 1.5-.6 1.5-1.3 0-.7 1.7-2.1 3.7-3.2s6.1-4.3 9.1-7.2c3.1-2.9 5.9-5 6.3-4.7.5.2 2.3-1.9 4.2-4.8 3.9-6 12.9-14.8 15.2-14.8 1.6 0 2.1-1.9.5-2.1-.5-.1-1.4-.3-2-.4-.5-.1-1.3-.3-1.7-.4-.5-.1-.1-.6.7-1.1 2.3-1.5 8.5-1.2 12.9.6 3.5 1.4 3.9 1.9 4.5 6.1.3 2.5.6 6.4.6 8.6v4l2.6-3.9c1.4-2.1 3.5-4.9 4.7-6.2 1.1-1.2 1.5-2.2.9-2.2s-1.4.5-1.7 1c-.5.8-1.2.7-2.3-.2-1.3-1.1-1.5-1-.9.4.4 1.1.2 1.8-.6 1.8-.7 0-1.7-1.9-2.3-4.3-.8-3.6-1.5-4.5-5.4-6.4-2.5-1.3-5.4-2.2-6.5-2.2-3.6.2-3.8-.1-2.1-2 .9-1 2.7-1.7 3.9-1.6 1.4.1 1.6.1.3-.2-1.4-.4-1.7-1.1-1.2-3.1.4-1.5 1.3-7.4 2-13.2.8-5.8 2.1-12.2 3.1-14.4.9-2.1 1.4-4.5 1.1-5.2-.4-1.1.1-1 1.9.3l2.5 1.8-.2 17.6zM234 248.4c0 .8.6 1.7 1.3 1.9.6.3-.6.5-2.8.5-2.2 0-3.2-.2-2.2-.5.9-.2 1.7-1.1 1.7-1.9 0-.8.5-1.4 1-1.4.6 0 1 .6 1 1.4zm-47 2.7c0 .5-.7.9-1.5.9s-1.5-.7-1.5-1.5c0-.9.6-1.2 1.5-.9.8.4 1.5 1 1.5 1.5zm59.7.5c2.1 3.2 2.9 18.2 1 19-.7.2-1.2 1.9-1.3 3.7-.1 4.2-6.6 17.9-10 21.1-2.4 2.1-2.6 2.7-1.4 4.1 2 2.4-.5 6.8-3.1 5.5-2.6-1.5-4.9-1.2-4.9.5 0 .8-.8 1.5-1.7 1.5-1.5 0-1.6-.2-.3-1 1.2-.8 1.3-1 .1-1-.8 0-2.3-.7-3.3-1.7-2-1.8-2.5-.4-.5 1.6 1 1 .8 1.2-.8.9-1.2-.2-1.9-1-1.7-2.1.3-1.8-1.3-2.3-2.3-.7-.3.5-1.4 1-2.3 1-1.5 0-1.5-.2-.2-1s1.3-1-.2-1c-.9 0-2.1.8-2.7 1.7-.5 1-1.3 1.4-1.7 1-1.4-1.4 5.2-5.3 12.9-7.7 4-1.2 8.7-.7 8.7 1 0 .6.5 1 1 1 2.1 0 .9-1.8-2.5-3.6-3.5-1.8-4.4-3.7-2.5-4.9.6-.4.7-1.1.4-1.7-.4-.6-.2-1.3.4-1.7.5-.3 1.2-1.7 1.3-3.1.3-1.9 0-2.5-1.3-2.4-1.6.2-1.6 0 .1-2.5 2.8-3.8 7.1-7.6 11.1-9.8 7.3-4 10.1-12.4 5.9-17.7-1.1-1.4-1.6-2.6-1-2.6.6 0 1.8 1.2 2.8 2.6zm62.3-2.2c0 .3-.4.8-1 1.1-.5.3-1 .1-1-.4 0-.6.5-1.1 1-1.1.6 0 1 .2 1 .4zm-55.5 2.6c.3.5.1 1-.4 1-.6 0-1.1-.5-1.1-1 0-.6.2-1 .4-1 .3 0 .8.4 1.1 1zm-18.4 2.7c.1 1.7.2 1.7.6 0 .3-1.3 1-1.6 2.6-1.1 3.6 1.1 4 2 2.5 6.5-1.8 5.4-4.3 6.7-3.3 1.8.4-1.9 1.1-3.8 1.6-4.4 1.1-1.2 1.2-2.5 0-2.5-.5 0-1.4 2-2 4.5-1.2 4.6-2.6 5.8-3.4 2.7-.3-1.3-.6-1-1.1 1-.8 2.7-3 4.3-4.7 3.2-1.4-.8-1.1-5.7.6-9.8 1.2-2.8 2.1-3.6 4-3.6 1.7 0 2.5.6 2.6 1.7zm-45.7.8c.3.8.1 1.5-.4 1.5-.6 0-1-.7-1-1.5s.2-1.5.4-1.5.6.7 1 1.5zm89.1.2c-.3 2.9-1.6 5.3-2.5 4.8-1-.6.8-6.5 1.9-6.5.4 0 .7.8.6 1.7zm3.5.8c0 .8-.4 1.5-1 1.5-.5 0-1-.7-1-1.5s.5-1.5 1-1.5c.6 0 1 .7 1 1.5zm-97.7 4.6c1 2.8 1.6 5.3 1.3 5.6-.6.6-3.6-6.3-3.6-8.2 0-.8-.6-1.6-1.2-1.8-.9-.4-.8-.6.2-.6 1-.1 2.2 1.8 3.3 5zm2.7-4.1c0 .5-.4 1-1 1-.5 0-1-.5-1-1 0-.6.5-1 1-1 .6 0 1 .4 1 1zm5.9 8.4c.1.6-.5.1-1.3-.9-.8-1.1-1.2-2.4-.8-2.9.5-.9 2 1.7 2.1 3.8zm43.6 1.4c-.3.3-1.1 0-1.8-.7-.9-1-.8-1.1.6-.5 1 .3 1.5.9 1.2 1.2zm37 .2c.3.5-.1 1-.9 1-.9 0-1.6-.5-1.6-1 0-.6.4-1 .9-1 .6 0 1.3.4 1.6 1zm-19.8 3.1c-.8 2.1-1.3 2.6-1.5 1.4-.5-2.1.5-4.5 1.7-4.5.5 0 .4 1.3-.2 3.1zm-58.4 4.9l.6 2.5-1.9-2.5c-1.1-1.4-2-3.4-2-4.5 0-1.9 0-1.9 1.3 0 .8 1.1 1.7 3.1 2 4.5zm9.7-5c0 .5-.4 1-1 1-.5 0-1-.5-1-1 0-.6.5-1 1-1 .6 0 1 .4 1 1zm25.1.7c1.2 1.6 1.2 1.7-.1.7-.8-.6-2.2-1.4-3-1.7-1.3-.5-1.2-.6.1-.6.9-.1 2.3.7 3 1.6zm41.9-.7c1.3.8 1.3 1-.2 1-.9 0-2-.5-2.3-1-.8-1.3.5-1.3 2.5 0zm-50.3 1.6c-.3.3-1.2.4-1.9.1-.8-.3-.5-.6.6-.6 1.1-.1 1.7.2 1.3.5zm5.3 2.9c1.8 2.1-3.2 7-6.3 6-1.2-.4-3.5-.7-5.2-.6-1.6 0-2.4-.3-1.7-.5.6-.3 1.2-1.6 1.2-2.9 0-2.4-.2-2.4 9.1-3.3.9-.1 2.2.5 2.9 1.3zm-14.9 9.1c8.6.9 9 1.8.9 2.4-5.8.5-7.9.3-9.3-.9-1.6-1.3-6.7-9.6-6.7-10.9 0-.4 2.2 1.5 4.8 4.1 4.3 4.2 5.4 4.8 10.3 5.3zm-1.1-8c0 .9-.7 1.4-1.7 1.2-2.5-.5-2.8-2.8-.4-2.8 1.2 0 2.1.6 2.1 1.6zm3-.1c0 .8-.4 1.5-1 1.5-.5 0-.7-.7-.4-1.5.4-.8.8-1.5 1-1.5.2 0 .4.7.4 1.5zm52.5 1.5c-.3.5-1 1-1.6 1-.5 0-.9-.5-.9-1 0-.6.7-1 1.6-1 .8 0 1.2.4.9 1zm-70.5 4c0 .5-.5 1-1.1 1-.5 0-.7-.5-.4-1 .3-.6.8-1 1.1-1 .2 0 .4.4.4 1zm2 1.9c0 .5-.7 1.2-1.6 1.5-1.4.5-1.5.4-.4-.9 1.4-1.7 2-1.9 2-.6zm.5 3.1c-.3.5-1.2 1-1.8 1-.7 0-.6-.4.3-1 1.9-1.2 2.3-1.2 1.5 0zm69.2 1.4c-.2.6-1.2 1-2.1 1-.9-.1-1.6.2-1.6.7 0 .5.6.9 1.3 1 1 0 1 .2 0 .6-.7.2-1.3 1.1-1.3 1.8 0 1.5-4.2 9.7-4.7 9.1-.2-.1.4-1.9 1.2-3.9 1.4-3.4 1.4-3.6-.2-3-1.7.7-1.7.6 0-2 .9-1.5 2.4-3.8 3.3-5.1 1.5-2.4 4.9-2.6 4.1-.2zm-41.7-1c0 .3-.4.8-1 1.1-.5.3-1 .1-1-.4 0-.6.5-1.1 1-1.1.6 0 1 .2 1 .4zm-25.5 1.6c-.3.5-1.6 1.5-2.8 2.1-2.1 1-2.1.9.2-1 2.5-2.3 3.6-2.7 2.6-1.1zm21.5 0c0 .5-.4 1-1 1-.5 0-1-.5-1-1 0-.6.5-1 1-1 .6 0 1 .4 1 1zm24.7-.4c-.3.3-1.2.4-1.9.1-.8-.3-.5-.6.6-.6 1.1-.1 1.7.2 1.3.5zm-41 4.2c-1.5 1.5-2.7 3.3-2.7 3.8 0 .6-1 1.9-2.1 3-1.6 1.4-2.1 1.5-1.7.4.3-.8.1-2.7-.3-4.2-.7-2.7 1.3-5.9 2.8-4.4.4.4.1 1.1-.7 1.6-.8.5-1.2 1.2-.8 1.5.3.3 1.8-.5 3.3-1.9 3.8-3.5 5.5-3.3 2.2.2zm13.1 2.2c1 1.6 1 2-.1 2-.8 0-1.9-1.1-2.5-2.5-1.4-3 .6-2.6 2.6.5zm4.7-.2c-.3.3-1.1 0-1.8-.7-.9-1-.8-1.1.6-.5 1 .3 1.5.9 1.2 1.2zm46.1 2.4c-1.1 1.5-1.6 1.8-1.6.7 0-1.6 2.1-4.2 2.8-3.4.2.2-.3 1.4-1.2 2.7zm-65.2 3c-.9 1.8-1.9 2.8-2.1 2.1-.4-1.2 2.8-6.5 3.5-5.8.2.2-.4 1.8-1.4 3.7zm7.6-2.2c0 .5-.2 1-.4 1-.3 0-.8-.5-1.1-1-.3-.6-.1-1 .4-1 .6 0 1.1.4 1.1 1zm48-.7c0 1-3.3 6.8-3.6 6.4-.7-.7 1.7-6.7 2.7-6.7.5 0 .9.2.9.3zm-23 1.7c0 .5-.4 1-1 1-.5 0-1-.5-1-1 0-.6.5-1 1-1 .6 0 1 .4 1 1zm27.6 4c-1.4 1.7-2.6 2.7-2.6 2.2 0-1.2 4.3-6.2 4.9-5.7.2.2-.8 1.8-2.3 3.5zm-14.1-.1c-.3.6-1.1 1.1-1.7 1.1-.6 0-.6-.6.2-1.5 1.4-1.7 2.6-1.3 1.5.4zm46.5-.9c0 .5-.5 1-1.1 1-.5 0-.7-.5-.4-1 .3-.6.8-1 1.1-1 .2 0 .4.4.4 1zm-91 1.6c0 .7-2.7 3.4-3.5 3.4-.3 0-.1-.9.5-2 1-1.8 3-2.8 3-1.4zm35.6 1.4c.8 0 1.4.5 1.4 1.1 0 .6-.7.8-1.6.5-.9-.3-1.8-.6-2-.6-.2 0-.4-.8-.3-1.8 0-1 .3-1.2.6-.5.2.7 1.1 1.3 1.9 1.3zm-1.7 2.7c1 .8 1.1 1.2.4 1.3-.6 0-1.5-.5-1.8-1-.4-.6-1.1-.8-1.6-.5-1.1.7-1.2-1.8-.2-2.9.4-.4 1-.1 1.2.6.2.7 1.1 1.8 2 2.5zm19.2-2.3c-.6.8-2.2 1.6-3.4 2-2.1.5-2.1.4.3-1.4 2.9-2.3 4.8-2.6 3.1-.6zM208 306c0 .5-.5 1-1.1 1-.5 0-.7-.5-.4-1 .3-.6.8-1 1.1-1 .2 0 .4.4.4 1zm117 5c0 .5-.5 1-1.1 1-.5 0-.7-.5-.4-1 .3-.6.8-1 1.1-1 .2 0 .4.4.4 1zm-5 1.2c0 .6-.3.9-.6.5-.3-.3-2.4.5-4.5 1.9-5.2 3.3-6.2 3-1.9-.6 3.6-3 7-3.9 7-1.8zm-82 .8c0 .5-.2 1-.4 1-.3 0-.8-.5-1.1-1-.3-.6-.1-1 .4-1 .6 0 1.1.4 1.1 1zm13 1c0 .5-.4 1-1 1-.5 0-1-.5-1-1 0-.6.5-1 1-1 .6 0 1 .4 1 1zm-5.5 1c.3.5.1 1-.4 1-.6 0-1.1-.5-1.1-1 0-.6.2-1 .4-1 .3 0 .8.4 1.1 1zm81 2.1c.4 1 .4 2.2.2 2.6-.3.5.1 1.4.9 2.1 1.2 1.1 1.4.9 1.4-1.3 0-2.9 1.2-3.2 3.1-.9 1.4 1.7 1.2 2-4.6 5.1-1.6.9-5.6 3.6-8.8 6.1-5.9 4.5-8.6 5.4-4.4 1.4 3-2.8 2.6-7.9-.7-9.1-2-.8-1.9-1 1.4-3 1.9-1.1 3-2.1 2.5-2.1-1.2 0-5.1 2.6-8.4 5.6-2 1.8-2.5 3.3-2.5 7.7-.1 4.3-.7 6.1-2.9 9.1-2.7 3.5-3 3.6-5 2.3-2.4-1.6-3.6-5.7-1.7-5.7.7 0 1-.7.6-1.5-.3-.8.1-2 .8-2.7.7-.8 1.5-1.8 1.7-2.3.2-.6 1.7-3.1 3.3-5.6 2.3-3.6 4.2-5.1 9.3-7.5 7.4-3.4 12.8-3.5 13.8-.3zm-82 .9c.3.5-.1 1-.9 1-.9 0-1.6-.5-1.6-1 0-.6.4-1 .9-1 .6 0 1.3.4 1.6 1zm17.9 1.9c1.1.4 1.5 1 .9 1.4-.5.3-1.9 0-2.9-.8-2-1.5-1.1-1.8 2-.6zM236 321c0 .5-.5 1-1.1 1-.5 0-.7-.5-.4-1 .3-.6.8-1 1.1-1 .2 0 .4.4.4 1zm21.5 1c.3.5.1 1-.4 1-.6 0-1.1-.5-1.1-1 0-.6.2-1 .4-1 .3 0 .8.4 1.1 1zm-3 2.9c-1.4 1.3-16.7 10.6-18.8 11.4-1.3.5-1.7.3-1.5-.5.3-.7 1.3-1.5 2.4-1.7 1-.2 2.3-.9 2.9-1.6.5-.7 3.4-2.5 6.3-4s5.5-3.1 5.8-3.6c.3-.5 1.3-.9 2.2-.9 1 0 1.2.3.7.9zm41.3 2c-.2 1-1.1 1.5-2.3 1.3-2.7-.5-3-.9-1.6-2.6 1.5-1.8 4.3-.9 3.9 1.3zm38.7-1.9c.5.8 1.1.8 2 0 .9-.7 1.6-.6 2.5.5 1.4 1.7 1.5 1.6-2 3.3-2.3 1-2.1 1.1 1.5.5 5.8-.8 4 .3-3.5 2.2-9.8 2.5-16 5.6-15.4 7.7.3 1 .1 1.8-.5 1.8s-1.1-.5-1.1-1c0-.6-.5-1-1.1-1-.7 0-.9 1-.5 2.6.6 2.3.5 2.4-1.6 1.3-1.9-.9-2.1-.9-1 .2 1.4 1.5 1.6 2.9.3 2.9-.5 0-1.2-.8-1.5-1.7-.5-1.1.5-2.8 2.9-5.3 1.9-2 3.5-3.9 3.5-4.3 0-1.8 11.6-10.5 14.2-10.7.4 0 1 .5 1.3 1zm23.5 2c0 .5-.5 1-1.1 1-.5 0-.7-.5-.4-1 .3-.6.8-1 1.1-1 .2 0 .4.4.4 1zm-134 3.8c0 .4-.9.8-2 .9-2.2.2-2.7-1.3-.7-2 1.4-.5 2.7.1 2.7 1.1zm69.3 1.1c-.8 2-3.9 5.1-5.2 5.1-.5 0-1.3.9-1.6 2-.6 2-2.5 1.9-2.5-.1 0-.6.5-.7 1.1-.3.9.5 1-.1.5-2-.4-1.5-.2-2.6.4-2.6.6 0 1.5-1.1 2.1-2.3.8-1.8 1.7-2.3 3.4-1.9 1.7.3 2.2.9 1.8 2.1zm-57.8.1c.3.6-.1 1.3-1 1.6-1.9.8-3 0-2-1.5.8-1.4 2.2-1.4 3-.1zm21.5 4c0 2.1 3.5 4.1 6.8 3.9.9 0 .2-.5-1.7-1.2s-3.7-1.9-3.9-2.7c-.4-1.2-.2-1.3.9-.4.8.7 2.8 1.5 4.5 1.8 3.1.7 3.1.8 2.2 4.7-.6 2.1-1.5 3.9-2 3.9-.6 0-.5.7.2 1.5 1 1.3.9 1.5-.9 1.5-1.2 0-1.9.4-1.6 1 .3.5.1 1-.4 1-.6 0-1.1.7-1.1 1.5s-.7 1.5-1.5 1.5c-2 0-1.9-.4 1-5s3-5 1-5c-.8 0-1.5.5-1.5 1 0 .6-1.1 2.8-2.5 5s-2.5 4.6-2.5 5.4c0 .7-.6 1.9-1.4 2.5-1.2 1-1.5.6-2.1-1.8-.5-2.2-1-2.8-2.3-2.4-1 .4-1.2.8-.4 1.1 1.8.6 1.5 4.9-.4 5.6-1.3.5-1.5.2-1.1-1.4.3-1.1.1-1.8-.3-1.5-.9.6-3.5-6.3-2.7-7.1.3-.3.8.9 1.2 2.6.6 2.8.8 3 2 1.4 1-1.5.9-2.1-.7-3.8-1.4-1.5-1.8-3.2-1.6-5.9.4-4 0-4.4-2.2-2.5-.8.7-.4 0 1-1.5 2.7-3.1 7.6-6.4 5.3-3.6-1.3 1.6-1.4 6.1-.1 5.3.4-.3.4-1.2.1-2.1-.5-1.3-.2-1.5 1.1-1 1.2.5 1.6.2 1.4-1.1-.2-1.3.4-1.7 2.5-1.7 1.8.1 2.6-.3 2.3-1.2-.3-.7-.1-1.3.4-1.3.6 0 1 .9 1 2zm89.4-.5c-.6 1.6-2.4 2.1-2.4.7 0-1.1 1.1-2.2 2.1-2.2.5 0 .6.7.3 1.5zm5.6-.5c0 .5-.4 1-1 1-.5 0-1-.5-1-1 0-.6.5-1 1-1 .6 0 1 .4 1 1zm4 1c0 .5-.2 1-.4 1-.3 0-.8-.5-1.1-1-.3-.6-.1-1 .4-1 .6 0 1.1.4 1.1 1zm-26.9 4.6c-.1.4-1.6.9-3.4 1.1-2.7.3-3.3 0-3.4-1.7-.1-1.1.2-2 .8-2 .5 0 .9.4.9 1 0 .5.5 1 1 1 .6 0 1-.7 1-1.6 0-1.4.2-1.4 1.5 0 .9.8 1.6 1.8 1.6 2.2zm5.9-1.6c0 1.1-.2 2-.4 2s-.6-.9-.9-2c-.3-1.1-.1-2 .4-2s.9.9.9 2zm5.9-.3c.6 1 1.1 1.2 1.1.5 0-.6.5-1.2 1-1.2 1.3 0 1.3 2.1 0 4-.9 1.3-1.2 1.2-2.5-.4-1.9-2.5-3-1.4-1.5 1.4 1.7 3.1.5 3.6-1.5.7-1.3-2-1.4-3-.5-4.6 1.3-2.6 2.6-2.7 3.9-.4zm8.6-.7c.3.5.2 1-.4 1-.5 0-1.3-.5-1.6-1-.3-.6-.2-1 .4-1 .5 0 1.3.4 1.6 1zm-17 2c.3.5.1 1-.4 1-.6 0-1.1-.5-1.1-1 0-.6.2-1 .4-1 .3 0 .8.4 1.1 1zm21.5 0c0 .5-.6 1-1.3 1-.7 0-2.9 1.1-5 2.5-2 1.4-3.7 2.1-3.7 1.6 0-1.5 6.5-5.7 9.3-6 .4-.1.7.3.7.9zm-58.1 2.6c.6 1.4.8 3 .5 3.6-.4.7.2.8 1.7.3 2.1-.7 2.2-.6 1 .9-.7.9-1.9 1.5-2.6 1.4-1.4-.3-7.6 5.2-11.5 10.2-1.4 1.7-3.3 4.1-4.2 5.2-1 1.2-1.8 2.6-1.8 3.3 0 .6-.8 2-1.9 3.1-1 1.1-2.2 3.1-2.6 4.4-.5 1.6-1 1.9-1.5 1-.4-.7 1.2-4.1 4.1-8.5 2.7-4 4.9-8 4.9-9 0-.9.4-1.3 1-1 .6.3.7-.1.4-1-.6-1.5 5.3-11.5 6.7-11.5.4 0 1-1.1 1.3-2.5.8-3.2 3-3.2 4.5.1zm58.6.8c-5.3 2.5-9 6.1-14.3 13.7-3.9 5.8-14.4 24.3-16.1 28.6-1.5 3.8-4.5 4.4-6.1 1.3-1-1.9-1-2 .9-.8 2.2 1.4 2.6 1.2 3.5-1.8.6-1.9.3-2.1-1.9-1.6-1.5.2-2.5 0-2.5-.7 0-.6 1.1-1.1 2.4-1.1 1.9 0 2.7-1 4.5-5.1 1.5-3.7 2.5-5 3.6-4.5 2 .7 1.9-.4-.2-1.9-1.9-1.4-.9-3.8 1.5-3.3 1 .2 2.3-.8 3.2-2.4 1.8-3.3 7.2-10.6 11.5-15.3 3.3-3.7 9.9-7.5 13-7.5 1.2 0 0 1-3 2.4zm28.5.6c0 .5-.4 1-1 1-.5 0-1-.5-1-1 0-.6.5-1 1-1 .6 0 1 .4 1 1zm-58 1c0 .5.9 1.9 2.1 3.1 2.3 2.3 1.8 5.2-.8 4.7-1.3-.3-1.7-1.2-1.5-3.1.3-3-2.2-4.7-4.1-2.8-1.6 1.6-2.7 1.4-2.1-.3.8-2.1 6.4-3.5 6.4-1.6zm67 3c6.5 4.4 9 7.4 9 10.5 0 2.7 1.8 4.5 4.4 4.5 1.9 0 1.9.1.3 1.7-1.6 1.6-2.1 1.3-9.6-6.2-4.4-4.4-7.7-8.3-7.4-8.7.2-.4-.3-.5-1.3-.1-1.3.5-1.5.2-1-1.5.6-1.7.4-2.1-.8-1.6-1.1.4-1.6.1-1.6-1 0-2.4 1.6-2 8 2.4zm-50.7 1.4c-1.9 2.7-3.3 3.3-3.3 1.4 0-1.7 4.4-6.1 4.8-4.9.2.6-.5 2.2-1.5 3.5zm-29.3-3c0 .3-.4.8-1 1.1-.5.3-1 .1-1-.4 0-.6.5-1.1 1-1.1.6 0 1 .2 1 .4zm-2.4 3.2c-.3.8-.1 1.4.4 1.4.6 0 1 .9 1 2 0 2.3-1.8 2.6-4.5.6-1.7-1.2-2-1.1-3 .7-.5 1.1-1.7 2.2-2.5 2.4-1 .3-.8-.1.4-1.1 1.1-.9 1.6-1.6 1.1-1.6-.4 0 0-.9 1.1-2.1l1.9-2.1 1.7 2.2c2 2.5 2.4 1.9.8-1.1-.6-1.1-.8-2.4-.5-2.9.9-1.5 2.7-.1 2.1 1.6zm7.4-1.6c0 .5-.4 1-1 1-.5 0-1-.5-1-1 0-.6.5-1 1-1 .6 0 1 .4 1 1zm6 .6c0 .8-.4 1.2-1 .9-.5-.3-1-1-1-1.6 0-.5.5-.9 1-.9.6 0 1 .7 1 1.6zm-10 .4c0 .5-.4 1-1 1-.5 0-1-.5-1-1 0-.6.5-1 1-1 .6 0 1 .4 1 1zm6.5 1c.3.5.1 1-.4 1-.6 0-1.1-.5-1.1-1 0-.6.2-1 .4-1 .3 0 .8.4 1.1 1zm13.5 1c-1.9 1.3-3 1.3-3 0 0-.6 1-1 2.3-1 1.8 0 1.9.2.7 1zm-36.5 1c-.3.5-1.1 1-1.6 1-.6 0-.7-.5-.4-1 .3-.6 1.1-1 1.6-1 .6 0 .7.4.4 1zm39 .9c-.3.6-1.1 1.1-1.7 1.1-.6 0-.6-.6.2-1.5 1.4-1.7 2.6-1.3 1.5.4zm-37.3 2.8c-8 16.1-9.3 18-11.1 16.9-2-1.3-1.2-5.2 1.7-8.2 1.5-1.6 4.3-4.8 6.1-7.2 3.3-4.3 5.1-5.1 3.3-1.5zm-4.2-1.3c0 .3-.4.8-1 1.1-.5.3-1 .1-1-.4 0-.6.5-1.1 1-1.1.6 0 1 .2 1 .4zm31 1.6c0 1.4-.5 1.8-1.7 1.3-1.5-.6-1.6-.4-.5.9 1 1.3 1 1.9-.3 3.2-.9.9-2.1 1.3-2.7 1-.7-.4-.6-.9.2-1.4 1.8-1.1.8-4.4-1.4-4.8-1.1-.3-2.6.4-3.3 1.4-1.2 1.6-1.5 1.7-2.3.4-1.3-2.1 1.4-3.3 6.1-2.7 2.2.3 4.2.1 4.5-.4.9-1.4 1.4-1 1.4 1.1zm-36 4.1c-1.2 1.6-2.4 2.8-2.7 2.5-.6-.6 2.9-5.5 4-5.6.5 0-.1 1.4-1.3 3.1zm19 .2c0 1.6-3.5.1-3.8-1.6-.3-1.6-.1-1.7 1.7-.5 1.2.7 2.1 1.7 2.1 2.1zm-53.7 2.4c-.4 2.5-1 3.3-3.1 3.5-1.4.2-2.7 1-2.9 1.8-.4 1.3-.3 1.3.6 0 .8-1.2 1.2-.9 2.1 1.5 1 2.7.9 3.2-1.7 5.4l-2.8 2.5-.3-3.9c-.4-4.2.4-8.5 1.6-8.4 2.5.4 3.9-.5 5.1-3.2 1.6-3.7 2-3.4 1.4.8zm4.7-2.7c0 .5-.7.7-1.5.4-.8-.4-1.5-.8-1.5-1 0-.2.7-.4 1.5-.4s1.5.4 1.5 1zm-10 2.5c-.7.9-1.5 1.3-1.9 1-.3-.3.1-1 .9-1.5 2.1-1.4 2.4-1.2 1 .5zm26-1.1c0 .3-1.8 2.5-4 5.1-2.2 2.5-5.8 7.8-8.2 11.7-2.3 3.9-4.4 6.6-4.6 6-.4-1.4 2.2-6.5 4.2-8.1.9-.8 1.6-1.8 1.6-2.3 0-.5.6-1.6 1.3-2.4.6-.8 2.8-3.4 4.7-5.8 3.1-3.9 5-5.5 5-4.2zm24.7 1.8c-.3.8-.6.5-.6-.6-.1-1.1.2-1.7.5-1.3.3.3.4 1.2.1 1.9zm4.3-1.2c0 .5-.4 1-1 1-.5 0-1-.5-1-1 0-.6.5-1 1-1 .6 0 1 .4 1 1zm-43.6 2.2c-6.1 7.4-8.4 8.7-8.4 5 0-.9.6-1.2 1.6-.8 1.1.4 1.8-.1 2.1-1.4.3-1.1 1.1-2 1.8-2s1.8-.7 2.5-1.5 1.5-1.5 1.8-1.5c.3 0-.3 1-1.4 2.2zm55.6-.2c0 .5-.4 1-.9 1-.6 0-1.3-.5-1.6-1-.3-.6.1-1 .9-1 .9 0 1.6.4 1.6 1zm-31.8 2.2c-.7.7-1.2.8-1.2.2 0-1.4 1.2-2.6 1.9-1.9.2.3-.1 1.1-.7 1.7zm38.8-1.1c0 .5-.4.8-.9.4-.5-.3-1.2-.1-1.6.5-.3.5-1.3 1-2.2 1-1.3 0-1.3-.3-.3-1.5 1.4-1.7 5-2 5-.4zm-17.2 2.9c2.7 3.7 2.9 5.2.2 1.9-1.1-1.3-2.4-3-3-3.7-.6-.6-.7-1.2-.2-1.2.4 0 1.8 1.3 3 3zm-96.5 2.4c1.5 2.3 1.5 2.4-.3 1.9-1.1-.3-2-1.4-2-2.4 0-2.5.4-2.4 2.3.5zm113.1-1.5c.3.5-.6 1.1-1.9 1.4-2.9.5-4.5-.9-1.8-1.6 2.9-.8 3.2-.7 3.7.2zm-40.8 1.7c-.3.9-.6 1.8-.6 2 0 .2-.4.4-.9.4s-.7-.9-.4-2c.3-1.1 1-2 1.5-2 .6 0 .7.7.4 1.6zm18.8 1.5c-.3.5-1 .7-1.5.3-.5-.3-.7-1-.3-1.5.3-.5 1-.7 1.5-.3.5.3.7 1 .3 1.5zM316 371c0 .5-.4 1-1 1-.5 0-1-.5-1-1 0-.6.5-1 1-1 .6 0 1 .4 1 1zm-12 1c0 .5-.4 1-1 1-.5 0-1-.5-1-1 0-.6.5-1 1-1 .6 0 1 .4 1 1zm-127.7 2c-.3 1.2-.8 1.9-1.1 1.6-.5-.6.5-3.6 1.2-3.6.2 0 .2.9-.1 2zm57.7-1c0 .5-.4 1-1 1-.5 0-1-.5-1-1 0-.6.5-1 1-1 .6 0 1 .4 1 1zm63.6 1.5c.9 3.5-.3 4.4-2.2 1.6-1.9-2.6-3-1.9-7.6 4.3-1.5 2.1-2.8 3.2-2.8 2.4 0-.8 1.6-3.6 3.5-6.2 4.2-5.4 8-6.3 9.1-2.1zm14.9-1.5c.8 1.3-.5 1.3-2.5 0-1.3-.8-1.3-1 .2-1 .9 0 2 .4 2.3 1zm8 0c-.3.5-1 1-1.6 1-.5 0-.9-.5-.9-1 0-.6.7-1 1.6-1 .8 0 1.2.4.9 1zM181 376.1c0 .4-.7.6-1.5.3-.8-.4-1.5-1-1.5-1.5 0-.4.7-.6 1.5-.3.8.4 1.5 1 1.5 1.5zm96.4 3.1c-1.5 2.4-3.8 6.1-4.9 8.3-1.2 2.2-3.8 7.1-5.8 10.8-2.1 3.8-3.7 6-3.7 5s.7-3.1 1.5-4.7c.9-1.7 1.7-4.3 1.9-5.8.2-1.5 1.5-4 2.9-5.4 1.4-1.4 4.2-4.9 6.3-7.9 2-3 3.9-5.3 4.2-5 .3.2-.8 2.4-2.4 4.7zm28.6-3.7c0 .8-.4 1.5-1 1.5-.5 0-1-.7-1-1.5s.5-1.5 1-1.5c.6 0 1 .7 1 1.5zm-46.5.5c-.3.5-1 1-1.6 1-.5 0-.9-.5-.9-1 0-.6.7-1 1.6-1 .8 0 1.2.4.9 1zm51.3.2c-.6 1.8-2.8 2.1-2.8.4 0-.9.7-1.6 1.6-1.6.9 0 1.4.5 1.2 1.2zm11.2-.2c0 .5-.7 1-1.6 1-.8 0-1.2-.5-.9-1 .3-.6 1-1 1.6-1 .5 0 .9.4.9 1zm-98.3 2.2c-.3.8-.6.5-.6-.6-.1-1.1.2-1.7.5-1.3.3.3.4 1.2.1 1.9zm91.3-1.3c0 1.2-2 2.5-2.7 1.8-.7-.7.6-2.7 1.8-2.7.5 0 .9.4.9.9zm-141.2 2.6c-.6 1.4-1.3 2.3-1.5 2.1-.5-.5 1.5-4.6 2.2-4.6.3 0-.1 1.1-.7 2.5zm120.7-.4c0 .8-1 1.5-2.2 1.7-2.5.4-3-.7-1.1-2.6 1.5-1.5 3.3-1 3.3.9zm14.4 1.8c2 1.1 5 3.8 6.5 6.1 1.5 2.2 3.8 4.6 5.1 5.2 2.9 1.3 3.3 2.8.8 2.8-.9 0-3.5-2-5.7-4.4-4-4.2-10-7.6-13.6-7.6-.9 0-2.2 1.1-2.8 2.5-1.5 3.2-3 3.2-3.8-.2-1.4-5.6 6.2-8.1 13.5-4.4zm5.1.1c0 .5-.2 1-.4 1-.3 0-.8-.5-1.1-1-.3-.6-.1-1 .4-1 .6 0 1.1.4 1.1 1zm3-.1c0 .6-.4 1.3-1 1.6-.5.3-1-.1-1-.9 0-.9.5-1.6 1-1.6.6 0 1 .4 1 .9zm-139.3.7c-.3.3-1.2.4-1.9.1-.8-.3-.5-.6.6-.6 1.1-.1 1.7.2 1.3.5zm20.3.4c0 .5-.5 1-1.1 1-.5 0-.7-.5-.4-1 .3-.6.8-1 1.1-1 .2 0 .4.4.4 1zm65.1 1.3c-1 .9-1.1.8-.5-.6.3-1 .9-1.5 1.2-1.2.3.3 0 1.1-.7 1.8zm-7.2 1.6c.8 1.4.7 2.2-.6 3.2-1.5 1.2-1.6 1.2-1-.5.4-1 .2-2.5-.4-3.2-.8-1-.8-1.4-.1-1.4.6 0 1.6.9 2.1 1.9zm35.4-.6c.7 1.9-.5 3.4-2.5 3.4-1.9 0-2.1-.6-1.2-3.1.7-1.9 3-2.1 3.7-.3zm-98.9.6c.6 1-2.4 2.5-3.2 1.6-.3-.3 0-.5.7-.5s.9-.5.6-1c-.3-.6-.2-1 .4-1 .5 0 1.2.4 1.5.9zm153.1.1c-.3.5-1.1 1-1.6 1-.6 0-.7-.5-.4-1 .3-.6 1.1-1 1.6-1 .6 0 .7.4.4 1zM177 386c0 .5-.4 1-1 1-.5 0-1-.5-1-1 0-.6.5-1 1-1 .6 0 1 .4 1 1zm43-.6c0 .3-.4.8-1 1.1-.5.3-1 .1-1-.4 0-.6.5-1.1 1-1.1.6 0 1 .2 1 .4zm31.5.6c-.3.5-1 1-1.6 1-.5 0-.9-.5-.9-1 0-.6.7-1 1.6-1 .8 0 1.2.4.9 1zm8.4 3.1c-1.8 3.7-6.8 17.4-10.1 27.9-.6 1.9-1.3 2.9-1.5 2.2-.3-.7.4-3.4 1.5-6s2.8-7.6 3.7-11.1c1.6-6.1 4.5-13.1 6.7-15.9 2-2.3 1.8-1.2-.3 2.9zm-78.9-1.6c0 .8-.4 1.5-1 1.5-.5 0-.7-.7-.4-1.5.4-.8.8-1.5 1-1.5.2 0 .4.7.4 1.5zm82.5 4c-1.4 2.6-2.5 6.2-2.5 7.9 0 1.7-.5 3.8-1.1 4.6-.8 1.1-.9 0-.4-3.9.6-5 2.4-9.9 4.8-12.9 2-2.5 1.6-.5-.8 4.3zM283 387c0 1.9-2.4 6-3.4 6-.7 0-1.9-.9-2.8-2-1.6-1.8-1.6-2 .5-3.5 2.4-1.7 5.7-2 5.7-.5zm26.1 0c.5 0 1 1.7 1 3.7l.2 3.8.6-3.5c.6-3.2.7-3.3 1.8-1.5 1.2 2.3.3 5.4-2.2 7.5-1.3 1.1-2.1 1.1-3.6.2-1-.7-3.8-1.2-6.1-1.2-5.5 0-7.2-1.1-6.3-3.9.8-2.6 1.2-2.6 5-.1 3.4 2.3 5.3 2.5 5.2.7-.2-5 .4-6.9 1.9-6.3.9.3 2 .6 2.5.6zm40.7.2c1.5 1.5 1.6 2.8.2 2.8-.5 0-1-.7-1-1.5s-.4-1.5-1-1.5c-.5 0-1 .4-1 1 0 .5-.8 1-1.7 1-1.5 0-1.4-.2.3-1.5 2.3-1.8 2.7-1.8 4.2-.3zm-110.2 4.4c-.7 1.9-7.4 1.8-10.6-.2l-2.5-1.5 2.5.5c7.6 1.8 10.2 1.9 10 .5-.1-.8-.1-2.1 0-2.9.2-1.1.4-1 .7.3.3 1 .2 2.5-.1 3.3zm3.5-1.3c-.8.8-1.1.7-1.1-.4 0-2 1.3-3.4 1.8-1.9.3.7-.1 1.7-.7 2.3zm-50.8 12.6c-.1 7.8-.7 15-1.2 16-.6 1-.7 2.1-.4 2.5.3.3.4.6.1.6-.3 0-1.2-.8-1.9-1.7-1.2-1.4-1.2-1.6.1-.9.8.4.7.1-.4-.8-1.3-1-1.7-2.2-1.3-3.8 2.6-9.9 3.7-16.1 3.7-21.1 0-3.2.4-5.6.8-5.3.4.2.7 6.8.5 14.5zm95.1-14.3c.9.4 1.6 1.8 1.6 3.3 0 1.4-.4 2.1-.8 1.6-.8-1.1-3.2-1.8-3.2-.9 0 .3 1.1 1.5 2.5 2.6s2.5 2.8 2.5 3.9c0 2.5-3.8 6.2-5.6 5.5-.8-.3-1.4.1-1.4 1 0 1.5-4.4 8.9-6.6 11.2-.8.7-1.8 2.1-2.3 3-.5.9-1.2 1.4-1.6 1.1-.3-.4 1-4.1 3-8.4 1.9-4.2 3.2-8.1 2.9-8.6-.5-.8 6.3-15.9 7.1-15.9.2 0 1 .3 1.9.6zM202 390c0 .5-.2 1-.4 1-.3 0-.8-.5-1.1-1-.3-.6-.1-1 .4-1 .6 0 1.1.4 1.1 1zm-25.8 2.2c-.7.7-1.2.8-1.2.2 0-1.4 1.2-2.6 1.9-1.9.2.3-.1 1.1-.7 1.7zM343 391c0 .5-.2 1-.4 1-.3 0-.8-.5-1.1-1-.3-.6-.1-1 .4-1 .6 0 1.1.4 1.1 1zm26.5 0c.3.5.2 1-.4 1-.5 0-1.3-.5-1.6-1-.3-.6-.2-1 .4-1 .5 0 1.3.4 1.6 1zm7.5-.1c0 .5-.7 1.4-1.5 2.1-1.2 1-1.5 1-1.5-.2 0-.8.3-1.8.7-2.1.9-1 2.3-.9 2.3.2zm-197.1 3.8c0 2.9-.2 3.3-.8 1.8-.7-1.8-.4-5.5.5-5.5.2 0 .4 1.7.3 3.7zm97.1-1.2c1.8 1.9 2.1 2.7 1.1 3.9-1 1.2-1.6 1.1-3.8-1-1.5-1.4-2.3-3-1.9-3.9.8-2.1 1.9-1.9 4.6 1zm71-1.5c0 .5-.5 1-1.1 1-.5 0-.7-.5-.4-1 .3-.6.8-1 1.1-1 .2 0 .4.4.4 1zm4.5 0c.3.5-.1 1-1 1s-1.3-.5-1-1c.3-.6.8-1 1-1 .2 0 .7.4 1 1zm-123.9 2.1c.3.5-.1.9-.8.9-.8.1-.6.6.6 1.5 1.9 1.5 1.9 1.5-.3 1.5-2.1 0-2.2.3-1.6 4.2.4 2.9.3 3.8-.4 2.8-.5-.8-1.2-4.1-1.6-7.2-.7-5.4-.6-5.6 1.4-5.1 1.2.3 2.4.9 2.7 1.4zm22.1-1.5c-.3.3-1.2.4-1.9.1-.8-.3-.5-.6.6-.6 1.1-.1 1.7.2 1.3.5zm116.8.5c1.2 1.8-.3 2.2-2 .5-1.4-1.4-1.4-1.6-.1-1.6.8 0 1.8.5 2.1 1.1zm-164 .9c-.3.5-1.3 1-2.1 1s-1.4-.5-1.4-1c0-.6.9-1 2.1-1 1.1 0 1.7.4 1.4 1zm140.5 0c0 .5-.5 1-1.1 1-.5 0-.7-.5-.4-1 .3-.6.8-1 1.1-1 .2 0 .4.4.4 1zm28 0c0 .5-.4 1-1 1-.5 0-1-.5-1-1 0-.6.5-1 1-1 .6 0 1 .4 1 1zm-22 1c0 .5-.2 1-.4 1-.3 0-.8-.5-1.1-1-.3-.6-.1-1 .4-1 .6 0 1.1.4 1.1 1zm-173.8 2.2c-.7.7-1.2.8-1.2.2 0-1.4 1.2-2.6 1.9-1.9.2.3-.1 1.1-.7 1.7zm72 .3c-.2 1.4-.6 2.5-.8 2.5-.2 0-.4-1.1-.4-2.5s.4-2.5.9-2.5c.4 0 .6 1.1.3 2.5zM347 396c0 .5-.4 1-1 1-.5 0-1-.5-1-1 0-.6.5-1 1-1 .6 0 1 .4 1 1zm28.4-.1c.8 1.2-2.1 3.4-3.4 2.6-.8-.5-.8-1.1.1-2.1 1.3-1.6 2.5-1.8 3.3-.5zm-163 1.6c.3.8.1 1.5-.4 1.5-.6 0-1-.7-1-1.5s.2-1.5.4-1.5.6.7 1 1.5zm6.7 3.4c.5 20.8.5 34.1-.2 34.1-1.4 0-1.6-2.6-1.2-20 .3-12.3.1-17.1-.6-16-.9 1.2-1.1 1.1-1.1-.7 0-4 3-1.5 3.1 2.6zm57.4.9c-.5.6-6.4-4.1-6.4-5.1-.1-.4 1.5.5 3.4 2s3.2 2.9 3 3.1zM370 397c0 .5-.2 1-.4 1-.3 0-.8-.5-1.1-1-.3-.6-.1-1 .4-1 .6 0 1.1.4 1.1 1zm-136 1.6c0 .8-.4 1.2-1 .9-.5-.3-1-1-1-1.6 0-.5.5-.9 1-.9.6 0 1 .7 1 1.6zm8-1.2c0 .3-.4.8-1 1.1-.5.3-1 .1-1-.4 0-.6.5-1.1 1-1.1.6 0 1 .2 1 .4zm63.7 1.6c2.9 2.3 6 2.5 9.7.9 2.6-1.2 7.6-.5 7.6 1.1 0 .5-1.2.9-2.7.8-1.6 0-5 .3-7.8.7-4.7.6-5.2.5-7.9-2.4-3.4-3.5-2.7-4.1 1.1-1.1zm17.3-1c0 .5-.4 1-.9 1-.6 0-1.3-.5-1.6-1-.3-.6.1-1 .9-1 .9 0 1.6.4 1.6 1zm27 .5c-.7.8-1.7 1.2-2.2.9-.6-.4-.5-1 .3-1.5 2.2-1.4 3.3-1 1.9.6zm3.7 1c-2.3 2.2-3.3 1.8-1.2-.5 1-1.1 2-1.8 2.3-1.6.2.3-.3 1.2-1.1 2.1zm-151.7-.6c0 .6-.4 1.3-1 1.6-.5.3-1-.1-1-.9 0-.9.5-1.6 1-1.6.6 0 1 .4 1 .9zm36.5.1c-.3.5-1.3 1-2.1 1s-1.2-.5-.9-1c.3-.6 1.3-1 2.1-1s1.2.4.9 1zm129.5.4c0 .8-.4 1.7-.9 2.1-1.2.7-2.4-1.2-1.6-2.5.9-1.5 2.5-1.2 2.5.4zm-188 .6c0 .5-.4 1-1 1-.5 0-1-.5-1-1 0-.6.5-1 1-1 .6 0 1 .4 1 1zm90-.1c0 .5-.7 1.2-1.6 1.5-1.4.5-1.5.4-.4-.9 1.4-1.7 2-1.9 2-.6zm32.6 1.2c1.9 1.5 1.8 2.9-.1 2.9-2.1 0-7.5-2.8-7.5-3.9 0-1.2 6-.4 7.6 1zm53.5 1.2c-1.1 1.2-2.3 1.8-2.6 1.5-.9-.9 2.7-4.8 3.8-4.1.5.3 0 1.5-1.2 2.6zM371 400c0 .5-.4 1-1 1-.5 0-1-.5-1-1 0-.6.5-1 1-1 .6 0 1 .4 1 1zm4 1c-1.4 1-2.7 1.6-3 1.3-.6-.6 3-3.3 4.4-3.3.6 0 0 .9-1.4 2zm-141.4 8.3c.8 3.3 1.2 6.2 1 6.4-.2.3-1.3 0-2.4-.6-2.4-1.3-3.6-6.7-2.6-11.7.6-3.1.8-3.4 1.7-1.9.5 1 1.6 4.5 2.3 7.8zm-16.7-5.1c-.1 3.1-.1 3.1-.8.8-.5-1.4-.6-2.8-.4-3.3.9-1.5 1.3-.6 1.2 2.5zm29.8 0c-.3.7-.5.2-.5-1.2s.2-1.9.5-1.3c.2.7.2 1.9 0 2.5zm-47.7 2.3c-.7 2-1.4 3.4-1.7 3.1-.3-.2.1-2 .8-4 1.7-4.6 2.5-3.8.9.9zm171-1.4c-1.4 2.5-1.8 2.4-1.5-.4.3-2.9.3-2.9 1.5-2.2.7.4.7 1.3 0 2.6zm-189.6 2.5c1 7.3.5 9.4-.9 3.9-.7-2.8-1.6-5.8-2-6.8-.5-1.2-.3-1.7.8-1.7.9 0 1.6 1.5 2.1 4.6zm57-.9c.8 5.4.8 7.9-.3 6.7-1.3-1.3-2.4-10.4-1.3-10.4.5 0 1.2 1.7 1.6 3.7zm85.6-2.2c0 .8-.4 1.5-.9 1.5-1.3 0-2.2-1.6-1.4-2.4 1.1-1.1 2.3-.6 2.3.9zm-110.3 1.7c-.3.8-.6.5-.6-.6-.1-1.1.2-1.7.5-1.3.3.3.4 1.2.1 1.9zm86.6-1.1c1.7.8 3 .8 4.4.1 3.2-1.7 6.1-.3 7.4 3.5.8 2.4 2.1 3.9 4.3 4.9 1.8.8 2.4 1.3 1.4 1.4-1.9 0-2.6 2-.7 2 .5 0 .7.4.4 1-.3.5.2 1 1.1 1 2.6 0 .6 1.5-3.9 3-2 .6-4.3 1.7-5 2.3-1.6 1.6-8.5 4.7-10 4.6-.7 0 1.1-1.1 3.8-2.4l5-2.3-6-.6c-3.3-.4-7.2-1.4-8.7-2.2-3.4-1.8-5.2-1.8-9.1.2-4 2-9.7 7.4-9.7 9.1 0 .7-.9 1.3-2 1.3s-2-.7-2-1.5.4-1.5.9-1.5c.6 0 3.1-1.8 5.6-4 5.9-5.1 9.5-7 13-6.7 1.6.1 3-.4 3.5-1.3.4-.8 1.2-2.5 1.8-3.7.7-1.4.8-2.4.2-2.8-.6-.3-1-1.9-1-3.6 0-3.2 1.3-3.6 5.3-1.8zm58.9 3.3c-2.3.8-4.1-.3-4.2-2.6 0-1.4 3.6-1.3 5.1.1 1.5 1.5 1.4 1.7-.9 2.5zm7-1.2c-1.5 1.5-2.6.4-1.8-1.8.5-1.3.9-1.5 1.8-.6s.9 1.5 0 2.4zm8.8-2.2c0 .5-.4 1-1 1-.5 0-1-.5-1-1 0-.6.5-1 1-1 .6 0 1 .4 1 1zm-199.6 8.3c.9 4.4 3.2 11.5 5.1 16 1.9 4.4 3.3 8.2 3 8.5-.4.5-8.5-15.3-9-17.8-.7-3.4-1.7-15.5-1.2-15 .2.3 1.2 4 2.1 8.3zm35.6-7.5c0 1.3-1.2 2.2-2.2 1.6-1-.6-.1-2.4 1.3-2.4.5 0 .9.4.9.8zm40 .2c0 .5-.2 1-.4 1-.3 0-.8-.5-1.1-1-.3-.6-.1-1 .4-1 .6 0 1.1.4 1.1 1zm64 .9c0 1.2.9 2.1 2.3 2.4 1.5.4 1.2.5-.8.4-2.3-.2-3.1-.7-3.3-2.5-.2-1.2.1-2.2.7-2.2s1.1.9 1.1 1.9zm-51.3 1.3c-.3.8-.6.5-.6-.6-.1-1.1.2-1.7.5-1.3.3.3.4 1.2.1 1.9zm-45.7 4.3c0 2.5-.3 4.5-.8 4.5-.4 0-.6-2-.4-4.5.2-2.5.6-4.5.8-4.5.2 0 .4 2 .4 4.5zm73-2.2c0 2.6-3.9 6.7-8.7 9.1-1.7.8-3.8 2.3-4.7 3.1-2.2 2.2-2.1-.1.2-2.9.9-1.2 2.4-2 3.4-1.8 2.2.4 8.9-6.4 8.2-8.3-.4-.8-.1-1.5.5-1.5s1.1 1 1.1 2.3zm-76-.4c0 1.2-2 2.5-2.7 1.8-.7-.7.6-2.7 1.8-2.7.5 0 .9.4.9.9zm32.6 4.2c-1.8 4.1-2.1 2.9-.4-1.8.7-1.9 1.4-3 1.6-2.5.1.4-.4 2.4-1.2 4.3zM360 410c0 .5-1 1-2.2.9-2.2 0-2.2-.1-.3-.9 1.1-.5 2.1-.9 2.3-.9.1-.1.2.3.2.9zm-184.7 25.7c1.5 2.9 4.8 8.4 7.2 12.3 3.9 6 7.6 13.8 7.5 15.9-.1.3-.9-1-1.9-2.9-1-1.9-4.6-8-8.1-13.5-8.1-12.7-9.7-16.9-10.4-28l-.5-9 1.7 10c1.1 5.9 2.9 12.1 4.5 15.2zM210 412c0 .5-.7 1-1.6 1-.8 0-1.2-.5-.9-1 .3-.6 1-1 1.6-1 .5 0 .9.4.9 1zm148 1c0 .5-.7 1-1.5 1s-1.5-.5-1.5-1c0-.6.7-1 1.5-1s1.5.4 1.5 1zm-156.6 4.6c-.4 5.5-3.9 19.4-6.4 25.1-2.1 4.8-3.3 5.8-2 1.5 3.1-9.4 7-22.6 7-23.5 0-3-2.2 2-5.6 12.8-2.1 6.6-3.9 11.3-4.1 10.4-.4-1.8 9.6-30.9 10.6-30.9.4 0 .6 2.1.5 4.6zm144-3.2c-.7 1.9-3.5 2.9-4.7 1.7-.7-.7-.6-1.2.4-1.5 1.3-.4 4.1-1.4 4.6-1.5.1-.1 0 .5-.3 1.3zm8.6-.4c0 .5-.5 1-1.1 1-.5 0-.7-.5-.4-1 .3-.6.8-1 1.1-1 .2 0 .4.4.4 1zm-140.3 2.3c.4.6-.2.8-1.8.4-1.3-.4-3-.7-3.6-.7-.7 0-1.3-.4-1.3-.8 0-1.2 5.9-.2 6.7 1.1zm57.6-1.6c.3.5-1.8.9-4.7 1-3.5.1-4.5-.2-3.1-.7 2.6-1.1 7.2-1.2 7.8-.3zm94 1.8c-.3.8-1.4 1.5-2.4 1.5-1.8 0-1.8-.1-.1-1.8 1.9-2.1 3.4-1.9 2.5.3zm-121.9 0c.6 1.6-1.4 2.1-2.9.6-.6-.5-1.9-1.1-3-1.4-1.2-.3-.5-.5 1.6-.6 2.4-.1 3.9.4 4.3 1.4zm13.6-.3c0 .4-.4.8-.9.8-.6 0-1.2-.4-1.5-.8-.3-.5.1-.9.9-.9s1.5.4 1.5.9zm99.5-.2c-.3.5-1.1 1-1.6 1-.6 0-.7-.5-.4-1 .3-.6 1.1-1 1.6-1 .6 0 .7.4.4 1zm-6.5 3.2c0 1.5-3.7 2.7-4.8 1.6-1.6-1.6-1.5-3.5.1-4.1 1.3-.4 4.7 1.3 4.7 2.5zm-155.3 1c-.3.8-.6.5-.6-.6-.1-1.1.2-1.7.5-1.3.3.3.4 1.2.1 1.9zm18.8-1.2c.3.5.1 1-.4 1-.6 0-1.1-.5-1.1-1 0-.6.2-1 .4-1 .3 0 .8.4 1.1 1zm123.5 2.1c0 2.1-.8 2.3-2.9 1-1.8-1.2-.6-4.2 1.4-3.5.8.3 1.5 1.5 1.5 2.5zm6.4.2c.7 1.1.7 2 0 2.7-1.5 1.5-4.4.2-4.4-1.9 0-3.5 2.5-3.9 4.4-.8zm-135.7.7c-.1 2.2-1.7 2.8-1.7.7 0-1.2.9-2.7 1.6-2.7.2 0 .2.9.1 2zm17-1.4c-.3.3-1.2.4-1.9.1-.8-.3-.5-.6.6-.6 1.1-.1 1.7.2 1.3.5zm-11.7 1.3c0 .6-.4 1.3-1 1.6-.5.3-1-.1-1-.9 0-.9.5-1.6 1-1.6.6 0 1 .4 1 .9zm112.4 0c.3.5 3.1 1.2 6.3 1.6 4.7.6 6.3 1.3 9.2 4.2l3.4 3.4 3.9-1.7c2.1-.9 4.3-2.3 4.9-3.1.6-.7 1.8-1.3 2.6-1.3s2.8-.9 4.3-2c2.5-1.7 2.9-1.8 3.4-.4 1 2.7.7 4.4-.9 4.4-.8 0-1.5.4-1.5.8 0 .5-1.8 1.7-4 2.7-2.6 1.2-3.7 2.2-3.1 2.8 1.1 1.1.3 3.7-1.1 3.7-.6 0-.5-.6.2-1.5 1-1.3.9-1.5-.9-1.5-1.2 0-2.1.6-2.1 1.5 0 .8-.9 1.5-1.9 1.5-1.1 0-2.1.6-2.4 1.2-.4 1.5-3.7-4.3-3.7-6.6 0-2.7-4.8-3.1-8.1-.7l-2.9 2.2-1.1-2.7c-.5-1.5-2.6-4.2-4.5-6.1-2.2-2.1-3-3.3-2-3.3.8 0 1.7.4 2 .9zm26.6.8c0 .9-.3 1.4-.6 1-.4-.3-2.1.1-3.8.9l-3.1 1.6 2.9-2.6c3.4-3 4.6-3.3 4.6-.9zm-88.5 3.1c-2.4.5-4.5-.5-4.5-2.3 0-1.4.4-1.4 3.1.2 2.2 1.3 2.6 1.9 1.4 2.1zm56.1-3.1c-.9.9-7.9 3.3-8.4 2.8-.6-.6 5.2-3.4 7.2-3.5 1.1 0 1.6.3 1.2.7zM274 424c0 .5-.9 1.4-2 2-1.5.8-2 .8-2-.3 0-.8.3-1.7.7-2 1-1 3.3-.8 3.3.3zm17.8 1.2c1.5 1.3 1.6 5.9.1 9.1-1.5 3.2-7.9 6.3-7.9 3.8 0-.5 1.2-1.4 2.8-2 2.4-1 2.7-1.7 2.7-5.7v-4.6l-5 .5c-4.8.4-4.8.4-2.8-1.3 2.2-1.8 7.7-1.7 10.1.2zm4.4 4.3c-.1 4.9-3.4 13.5-5.2 13.5-.6 0-.8-.5-.5-1 .3-.6-.2-1-1.2-1-1.5-.1-1.3-.5.9-2.3 3.2-2.6 4.8-6.5 4.8-11.4 0-2 .3-3.4.6-3 .4.3.6 2.7.6 5.2zm25.8-4c-.7.8-1.6 1.2-2.1.9-1.3-.8-.1-2.4 1.8-2.4 1.3 0 1.3.3.3 1.5zm-109-.1c0 .3-.4.8-1 1.1-.5.3-1 .1-1-.4 0-.6.5-1.1 1-1.1.6 0 1 .2 1 .4zm-44.3 3.8c-.3.7-.5.2-.5-1.2s.2-1.9.5-1.3c.2.7.2 1.9 0 2.5zm20.6-1.2c-.3 1.2-.8 1.9-1.1 1.6-.5-.6.5-3.6 1.2-3.6.2 0 .2.9-.1 2zm129-.7c1.9 1.3 3.6 8.7 2 8.7-.5 0-.9-.9-1-2-.1-1.1-1.1-3.4-2.3-5-2.2-3.1-1.6-3.9 1.3-1.7zm-49.3.1c0 .3-.4.8-1 1.1-.5.3-1 .1-1-.4 0-.6.5-1.1 1-1.1.6 0 1 .2 1 .4zm18 3.1c0 2.3-2.3 5.5-4 5.5-1.8 0-4-1.3-4-2.3 0-1.9 5.2-6.6 6.6-6 .8.3 1.4 1.6 1.4 2.8zm25-2c-.6.8-2.1 1.7-3.1 2-1.2.4-3.1 3.1-4.6 6.3-2.2 4.8-2.7 5.4-3.4 3.7-.6-1.6-.8-1.7-.8-.3-.1 2.6-2.3 6.8-3.2 6.2-.5-.2-.4-1.6.2-3.1 1.4-3.7.4-4-1.1-.4-.9 2.3-.9 3.8-.1 6.2 1.6 4.5.5 4.9-1.5.6-1.6-3.4-1.6-3.7.6-9.1 2.1-5.4 4-7.3 4-4.1 0 2 2.4 1.9 4.1-.1 1.2-1.5 1.1-1.6-1.1-.9-2 .5-1.4-.3 2.5-3.9 2.8-2.5 5.8-4.6 6.9-4.6 1.5 0 1.6.3.6 1.5zm16.3 3.1c.9 2 1.5 4 1.2 4.5-.3.5-.1 3.4.4 6.6.9 4.4.8 5.9-.1 6.4-1.9 1.2-3.3-.8-1.8-2.5.7-.9.9-2.3.5-3.3s-.9-2.5-1-3.3c-.6-5.1-1.7-9-2.5-9-.6 0-1-.9-1-2 0-2.9 2.2-1.5 4.3 2.6zm-68.8-2.6c.3.5-.1 1-.9 1-.9 0-1.6-.5-1.6-1 0-.6.4-1 .9-1 .6 0 1.3.4 1.6 1zm58 6.9c-.8 3.8-5.6 7.8-9.1 7.7-3.6-.1-4.7-3.4-1.4-4.3 1.5-.4 2.1-1.3 2-3.2-.3-4.3-.1-4.5 2.2-2.5 2.1 1.8 2.1 1.8 1.5 0-.4-1-.2-2.5.5-3.3 1-1.3 1.5-1.2 3.1.8 1.2 1.5 1.6 3.1 1.2 4.8zm-66.8-2.7c-.3.7-.5.2-.5-1.2s.2-1.9.5-1.3c.2.7.2 1.9 0 2.5zm-59.7-.6c0 .2-1.2.4-2.7.4-2.1 0-2.4-.3-1.4-.9 1.3-.8 4.1-.5 4.1.5zm149.7 0c.3.9 0 1.9-.6 2.4-.9.5-.6.9.8 1.3 2.7.7 2.8 3.7.2 3.7-2.4 0-2.7-.5-3.6-5.3-.6-3-.4-3.7.9-3.7.9 0 1.9.7 2.3 1.6zm-168.8 8.9c.1 1.1 1.9 4.6 4.1 7.9 4.7 6.9 5.4 9.9.9 3.6-4.1-5.7-6.6-11.4-7.3-17l-.5-4.5 1.4 4c.7 2.2 1.4 4.9 1.4 6zm90.7-6.8c-1 1-1.9-.5-1-1.8.6-1.1.8-1.1 1.2 0 .2.7.1 1.5-.2 1.8zm5.8-1.8c.3.4 2.3 1.1 4.3 1.5 5 .8 18.3 9.4 18.3 11.8 0 1.3-4.1 4.7-5.7 4.8-.7 0-1.3-.5-1.3-1 0-.6-1.6-1.8-3.5-2.7-4.2-2-4.6-3.5-.7-2.8 1.5.3 2.1.2 1.5-.1-.7-.3-1.3-1-1.3-1.6 0-.6.6-.6 1.5.2.8.7 1.3 1.5 1 1.9-.2.4.4 1.4 1.4 2.3 1.5 1.2 2.1 1.3 3.5.2 1.6-1.1 1.4-1.4-1.6-3.7-5.1-4-8.2-4.7-19-4.7-7.9 0-9.8-.3-9-1.3.7-.8 3.3-1.1 9.1-.7 4.4.3 7.7.2 7.3-.2-.4-.4-2.1-.8-3.9-1-3.1-.2-6.8-3.8-3.9-3.8.8 0 1.7.4 2 .9zm66.5 3.2c-2.1 1.3-2.9 1.1-2.9-1 0-2.4 2.2-3.3 3.4-1.3.5.9.4 1.7-.5 2.3zm-135 3.6c-1.3 4.1-5.8 13.3-5.9 12 0-1.5 6.2-16.8 6.7-16.3.3.2-.1 2.2-.8 4.3zm122.1-.8c1.3 2.5 1.3 3.1 0 3.1-.5 0-1-.9-1-1.9 0-1.1-.6-2.2-1.2-2.4-1-.4-1-.6-.1-.6.7-.1 1.7.8 2.3 1.8zm15 .1c0 .5-.7 1-1.5 1s-1.5-.5-1.5-1c0-.6.7-1 1.5-1s1.5.4 1.5 1zm14 0c0 .5-.9 1-2.1 1-1.1 0-1.7-.5-1.4-1 .3-.6 1.3-1 2.1-1s1.4.4 1.4 1zm-166 1c0 .5-.2 1-.4 1-.3 0-.8-.5-1.1-1-.3-.6-.1-1 .4-1 .6 0 1.1.4 1.1 1zm30 1c0 .5-.2 1-.4 1-.3 0-.8-.5-1.1-1-.3-.6-.1-1 .4-1 .6 0 1.1.4 1.1 1zm62.5 1.1c.6.6-.4.7-2.5.3-1.9-.4-3.9-1.1-4.5-1.6-.7-.7.2-.8 2.5-.3 1.9.4 3.9 1.1 4.5 1.6zm-12.2-.4c-1.8.2-4.8.2-6.5 0-1.8-.2-.4-.4 3.2-.4s5 .2 3.3.4zm-49.8 2.3c.3.5.1 1-.4 1-.6 0-1.1-.5-1.1-1 0-.6.2-1 .4-1 .3 0 .8.4 1.1 1zm60.4.5c.2.2-.4 1.1-1.3 2-1.4 1.5-1.4 1.8 0 4.1 1.7 2.5.7 3.3-1.5 1.1-.7-.6-.3 1 .9 3.7 1.4 3.4 1.7 5.3 1 6-.7.7-1 .6-1-.1s-.9-1.1-2-1c-1.1.1-2 .4-2 .8s.9 1.1 2 1.4c2.3.7 2.5 1.8.7 3.3-1 .9-1.8-.1-3.6-4.3-2.3-5.3-4.8-7.4-10.6-8.8-1.5-.3-1.3-.5.8-.6 1.5 0 4.1.6 5.7 1.4 1.6.8 3.3 1.5 3.7 1.4 2-.3 2.7.2 1.3 1.1-1.2.8-1.1 1 .8 1 2.2 0 2.2-.1.6-2.5-.9-1.4-1.3-2.5-.8-2.5 1.3 0-3.8-4.9-5.8-5.6-3-.9-2.1-2.3 2-2.7 3.5-.4 8.3 0 9.1.8zm28.6.7c.6.4.2.8-.7.8-1 0-1.8-.7-1.8-1.7 0-.9.3-1.2.8-.7.4.5 1.2 1.2 1.7 1.6zm-46.5.9c0 1.1-.4 1.8-1 1.4-.5-.3-.7-1.2-.3-2 .7-2.1 1.3-1.9 1.3.6zm80.7.1c-.3.8-.6.5-.6-.6-.1-1.1.2-1.7.5-1.3.3.3.4 1.2.1 1.9zm-28.2-.2c-.3.5-1.4 1-2.3 1-1.5 0-1.5-.2-.2-1 2-1.3 3.3-1.3 2.5 0zm-90.5 1c0 .5-.8 1-1.7 1-1.5 0-1.6-.2-.3-1 1.9-1.2 2-1.2 2 0zm35.1 1.8c-.7.2-1.8-.1-2.3-.6-.8-.8-.4-.9 1.3-.5 1.3.4 1.8.8 1 1.1zm8.2-1.1c-.7.2-1.9.2-2.5 0-.7-.3-.2-.5 1.2-.5s1.9.2 1.3.5zm17.1 1.8c2.3 2.1 2.6 2.8 1.6 4-1 1.2-1.6 1.3-2.6.4-1.1-.9-1.1-1.5-.3-2.5.9-1.1.7-1.4-1-1.4-1.2 0-2.1-.6-2.1-1.5 0-2.2 1.3-1.9 4.4 1zm-46.1.2c-.7.2-2.1.2-3 0-1-.3-.4-.5 1.2-.5 1.7 0 2.4.2 1.8.5zm9.4 1.5c-.3.8-.6.5-.6-.6-.1-1.1.2-1.7.5-1.3.3.3.4 1.2.1 1.9zm16.6-1.5c-.7.2-1.9.2-2.5 0-.7-.3-.2-.5 1.2-.5s1.9.2 1.3.5zm31.7.3c0 .5-.8 1-1.7 1-1.5 0-1.6-.2-.3-1 1.9-1.2 2-1.2 2 0zm8.5 0c.3.5-.1 1-.9 1-.9 0-1.6-.5-1.6-1 0-.6.4-1 .9-1 .6 0 1.3.4 1.6 1zm-95.2 1.7c-1.3.2-3.3.2-4.5 0-1.3-.2-.3-.4 2.2-.4s3.5.2 2.3.4zm87.3 1.3c3.3 0 3.1 2.6-.3 3.5-2 .5-3.1.2-4-1.1-1.8-2.4-1.6-3.7.3-3 .9.3 2.7.6 4 .6zm-84.1 1c-.3.5-2.7.9-5.3.8l-4.7-.1 5-.7c2.8-.4 5.1-.8 5.3-.8.2-.1 0 .2-.3.8zm93.5 0c0 .5-.2 1-.4 1-.3 0-.8-.5-1.1-1-.3-.6-.1-1 .4-1 .6 0 1.1.4 1.1 1zm-23.5 1c1.1 1.7-.5 3.1-1.9 1.7-1.4-1.2-1.2-2.7.4-2.7.5 0 1.2.4 1.5 1zm8 2.4c1 4.9.3 7.1-2.3 7.4-1.2.2-2.2-.1-2.2-.7s.7-.8 1.5-.5c.8.4 1.5.1 1.5-.4 0-.6-.9-1.4-2-1.7-1.1-.3-2-1.1-2-1.6 0-.6-.4-.7-1-.4-1.8 1.1-1-.4 1.5-3 3.4-3.3 4.3-3.2 5 .9zm-75.5 0c0 .9-4 1.3-4.6.5-.3-.5.6-.9 2-.9s2.6.2 2.6.4zm86 .3c0 1.4-4.8 3.1-6.1 2.2-1.4-.8-.8-1.3 3.6-2.2 1.1-.3 2.1-.5 2.3-.6.1 0 .2.2.2.6zm-78 1.3c0 .5-.8 1-1.7 1-1.5 0-1.6-.2-.3-1 1.9-1.2 2-1.2 2 0zm35.7-.4c-.3.3-1.2.4-1.9.1-.8-.3-.5-.6.6-.6 1.1-.1 1.7.2 1.3.5zm6 0c-.3.3-1.2.4-1.9.1-.8-.3-.5-.6.6-.6 1.1-.1 1.7.2 1.3.5zm-55 1c-.3.3-1.2.4-1.9.1-.8-.3-.5-.6.6-.6 1.1-.1 1.7.2 1.3.5zm6.3 1.9c0 1.1-1.1 1.5-4.2 1.5-4.7 0-4.7-1.1.1-1.2 1.7-.1 2.8-.5 2.5-1-.3-.4 0-.8.5-.8.6 0 1.1.7 1.1 1.5zm19-.5c0 .5-.2 1-.4 1-.3 0-.8-.5-1.1-1-.3-.6-.1-1 .4-1 .6 0 1.1.4 1.1 1zm-11 1c0 .5-1.5 1-3.2 1-2.5 0-2.9-.3-1.8-1 2-1.3 5-1.3 5 0zm71-.6c0 1.1-1.9 1.5-2.5.6-.3-.5.1-1 .9-1 .9 0 1.6.2 1.6.4zm4 2.1c0 .8-.7 1.5-1.5 1.5-1.6 0-2-1.2-.8-2.3 1.1-1.2 2.3-.8 2.3.8zm-31.3.1c-.3.3-1.2.4-1.9.1-.8-.3-.5-.6.6-.6 1.1-.1 1.7.2 1.3.5zm16.4 2.1c2.5.4 3.5 1 2.8 1.8-1.2 1.1-6.4-1.3-6.7-3.1-.2-1.5-.1-1.6.7-.5.5.8 2 1.6 3.2 1.8zm-69.3 0c-1 .2-2.6.2-3.5 0-1-.3-.2-.5 1.7-.5s2.7.2 1.8.5zm8.2.3c0 .5-.9 1-2 1s-2-.5-2-1c0-.6.9-1 2-1s2 .4 2 1zm24.5 1.9c-.3.6-1.6 1.1-2.8 1.1-2.1 0-2.1-.1.3-1.3 2.7-1.5 3.6-1.4 2.5.2zM241 472c-1.9 1.2-5 1.3-5 .1 0-.9 5-2 6-1.3.2.2-.2.7-1 1.2z"/><path d="M242 145c0 .6.7 1 1.5 1s1.5-.2 1.5-.4-.7-.6-1.5-1c-.8-.3-1.5-.1-1.5.4zM242.2 148.6c.3 1.7 2.1 2.1 2.6.6.1-.5-.4-1.2-1.3-1.6-1.1-.4-1.5-.1-1.3 1zM258.5 147c-.3.5-.1 1 .4 1 .6 0 1.1-.5 1.1-1 0-.6-.2-1-.4-1-.3 0-.8.4-1.1 1zM214.5 165c-.3.5-.2 1 .4 1 .5 0 1.3-.5 1.6-1 .3-.6.2-1-.4-1-.5 0-1.3.4-1.6 1zM264.3 213.2c-2.5 4.8-3.3 5.5-8.7 7.4-3.8 1.3-5.5 2.4-4.7 2.9 1.2.7 2.3.3 9.1-2.9 2.4-1.1 8.7-11.2 7.7-12.2-.3-.3-1.8 1.9-3.4 4.8z"/><path d="M258.4 216.5c-1 .8-1.4 1.5-.8 1.5.6 0 1.7-.7 2.4-1.5 1.6-1.9.9-1.9-1.6 0zM245.5 294c-.3.5.3 1 1.4 1 1.2 0 2.1-.5 2.1-1 0-.6-.6-1-1.4-1-.8 0-1.8.4-2.1 1zM215 230.4c0 .2.8 1 1.8 1.7 1.5 1.3 1.6 1.2.3-.4s-2.1-2.1-2.1-1.3zM210.7 251.7c-1.9.3-2.7.9-2.3 1.8.3.8-.3 1.6-1.2 1.8-1.6.4-1.5.5.1.6.9 0 1.7.6 1.7 1.2 0 .8.5.8 1.5-.1 1.2-1 1.8-1 3 0 1.3 1 1.5.9 1.5-1 0-2.1.1-2.2 2.5-.6 3.2 2.1 4.5 2 4.5-.4 0-3.4-3.6-4.4-11.3-3.3zM213 260.1c0 2.7 2.5 5.1 5 4.7 1.3-.1 2.5-.9 2.6-1.6.1-.7 0-.8-.3-.2-.9 2-4.3 1-5.7-1.8-.9-1.6-1.5-2.1-1.6-1.1zM290 283c2 1.3 3.3 1.3 2.5 0-.3-.6-1.4-1-2.3-1-1.5 0-1.5.2-.2 1zM296 294c0 .5.5 1 1.1 1 .5 0 .7-.5.4-1-.3-.6-.8-1-1.1-1-.2 0-.4.4-.4 1zM281 308c0 .5.5 1 1.1 1 .5 0 .7-.5.4-1-.3-.6-.8-1-1.1-1-.2 0-.4.4-.4 1zM291.4 309.4c-.3.9-1.4 1.6-2.3 1.6-1.3 0-1.3.2-.2.9 1.7 1.1.5 5.1-1.5 5.1-.9 0-2.2-.7-3-1.5-.9-.8-2.3-1.5-3.2-1.4-1.2 0-1.3.2-.3.6.7.3 2.2 1.4 3.2 2.4 3.4 3.4 5.7 2.4 7.4-3.3 1.4-4.8 1.3-8.2-.1-4.4zM285.8 309.7c.7.3 1.6.2 1.9-.1.4-.3-.2-.6-1.3-.5-1.1 0-1.4.3-.6.6zM273.7 317.4c1 1.3 2 2 2.1 1.5.5-1.2-1.7-3.9-3-3.9-.5 0-.1 1.1.9 2.4zM279.3 317.4c.9.7 1.7 1.8 1.7 2.3 0 .6.9 1.3 2 1.6 1.1.3 2 .3 2 .1 0-1-5.3-5.4-6.4-5.4-.6 0-.3.7.7 1.4zM286.7 320.7c-.4.3-.7 1.1-.7 1.7 0 .6.5.5 1.2-.2.6-.6.9-1.4.7-1.7-.3-.3-.9-.2-1.2.2zM280 323.9c0 1.1 2.9 3.5 3.5 2.9 1-.9-.7-3.8-2.1-3.8-.8 0-1.4.4-1.4.9zM284.5 325c.3.5.8 1 1.1 1 .2 0 .4-.5.4-1 0-.6-.5-1-1.1-1-.5 0-.7.4-.4 1zM268.2 328.5c-1.6 1.9-.3 1.9 2.2 0 1.4-1.1 1.6-1.5.5-1.5-.8.1-2 .7-2.7 1.5zM217 277.1c0 .5.5.7 1 .4.6-.3 1-.8 1-1.1 0-.2-.4-.4-1-.4-.5 0-1 .5-1 1.1zM319.5 320c.3.5 1.6 1 2.8.9 2.1 0 2.1-.1.2-.9-2.8-1.2-3.7-1.2-3 0zM317.5 328c-.3.5-.2 1 .4 1 .5 0 1.3-.5 1.6-1 .3-.6.2-1-.4-1-.5 0-1.3.4-1.6 1zM254 338.4c0 .2.7.9 1.5 1.6 1.3 1.1 1.4 1 .9-.4-.5-1.4-2.4-2.3-2.4-1.2zM260.6 342.2c.3.4.9.8 1.5.8.5 0 .9-.4.9-.8 0-.5-.7-.9-1.5-.9s-1.2.4-.9.9zM254.5 346c.3.5 1.1 1 1.6 1 .6 0 .7-.5.4-1-.3-.6-1.1-1-1.6-1-.6 0-.7.4-.4 1zM252 351c2 1.3 3.3 1.3 2.5 0-.3-.6-1.4-1-2.3-1-1.5 0-1.5.2-.2 1zM307.6 389.4c.3.8.1 1.7-.5 2.1-.6.3-1.1 1.1-1.1 1.7 0 .7.6.6 1.5-.2 1.7-1.4 2-5 .5-5-.5 0-.7.6-.4 1.4zM283.6 395.7c-.3.3-.6 2.2-.6 4.2 0 3.5 0 3.5 1.6 1.3.8-1.2 2-1.9 2.6-1.6.6.4.6-.1-.1-1.4-1.3-2.5-2.6-3.4-3.5-2.5zM274 393.8c0 1.2 1.9 2.6 2.6 1.9.2-.2-.2-1-1.1-1.7-.9-.8-1.5-.8-1.5-.2zM302.4 407.8c-2.5.4-4.5 2.5-6.1 6.3-1.1 2.5-.9 2.8 2.9 5.3 3.2 2.1 4.6 2.5 7.1 1.8 3.8-1 4.9-3.1 1.3-2.5-3.6.7-4.6-2.2-1.8-5 2.2-2.1 2.2-2.1 3.6-.2.8 1.1 1.8 3.2 2.1 4.7.4 1.6 1.1 2.8 1.6 2.8 1.4 0 1.1-2-1.2-6.6-2.1-4.5-5.9-7.1-9.5-6.6zm2 1.8c1.3.5 1.1 1.2-1.1 4.2-1.5 2.1-2.8 3.9-3 4.1-.1.2-.9-.2-1.8-.9-1.8-1.5-.4-3.9 2.4-4.1 1.1 0 1.2-.2.3-.6-1-.4-1-.8-.1-1.9 1.3-1.6 1.2-1.6 3.3-.8zM333.8 427.7c-1 .2-1.8.8-1.8 1.3 0 1 3.8.1 4.6-1.1.5-.9.1-1-2.8-.2zM310.8 437.7c.7.3 1.6.2 1.9-.1.4-.3-.2-.6-1.3-.5-1.1 0-1.4.3-.6.6zM307 441c0 1.3 1.1 1.3 3 0 1.2-.8 1.1-1-.7-1-1.3 0-2.3.4-2.3 1zM200 43c-.9.6-1 1-.3 1 .6 0 1.5-.5 1.8-1 .8-1.2.4-1.2-1.5 0zM177.3 56.2c-.6.7-2.1 3.8-3.3 6.8-1.2 3-2.9 6.8-3.7 8.5-.9 1.6-1.2 2.7-.8 2.3.4-.4 1.3 0 2 .9 1 1.4 1.3 1.1 1.8-2.1.3-2 1.8-6.6 3.2-10.2 2.6-6.4 2.9-8.8.8-6.2zM279 65c0 .5.5 1 1.1 1 .5 0 .7-.5.4-1-.3-.6-.8-1-1.1-1-.2 0-.4.4-.4 1zM282.6 66.5c-.3.9-.5 3.5-.5 5.8.2 4 .2 3.9.9-1.3.7-5.9.6-7.1-.4-4.5zM285.3 75.3c-.3.7-.3.9.2.5.4-.4 1.4-.3 2.1.3.7.6 1.5.6 1.8.1.3-.6-.3-1.2-1.4-1.5-1.1-.3-2.3 0-2.7.6zM311.1 93.7c-.1 1.5.8 2.7 2.9 3.8 2.5 1.3 2.9 1.3 2.4 0-.3-.8-1.4-1.7-2.4-2-1-.3-2.1-1.4-2.3-2.3-.3-1.2-.5-1.1-.6.5zM298.5 121c.3.5.8 1 1.1 1 .2 0 .4-.5.4-1 0-.6-.5-1-1.1-1-.5 0-.7.4-.4 1zM153 145.4c0 .2.7.6 1.5 1 .8.3 1.5.1 1.5-.4 0-.6-.7-1-1.5-1s-1.5.2-1.5.4zM307 146.5c0 .8.2 1.5.4 1.5s.6-.7 1-1.5c.3-.8.1-1.5-.4-1.5-.6 0-1 .7-1 1.5zM313 147c0 1.3 2.8 2.5 3.8 1.6.3-.4 0-1.1-.8-1.6-2-1.3-3-1.2-3 0zM323.3 210.7c.9.2 2.3.2 3 0 .6-.3-.1-.5-1.8-.5-1.6 0-2.2.2-1.2.5zM321.5 231c.3.5 1.8 1 3.2 1 3.2 0 2.8-.5-1-1.4-1.9-.4-2.6-.3-2.2.4zM328.3 234.1c1.4.8 2.2.8 3 0 .8-.8.3-1.1-1.8-1.1-2.6.1-2.8.2-1.2 1.1zM318.4 241.5c2.2 1.7 4 2 3.2.6-.3-.5-1.6-1.1-2.8-1.4-2.2-.6-2.2-.5-.4.8zM303 288c0 .5.5 1 1 1 .6 0 1-.5 1-1 0-.6-.4-1-1-1-.5 0-1 .4-1 1zM337.5 318c-.3.6.1.7.9.4 1.8-.7 2.1-1.4.7-1.4-.6 0-1.3.4-1.6 1zM366.8 347.7c1.4.5 1.6 3.9.3 4.7-.5.4-.7-.4-.5-1.6l.5-2.3-1.2 2.2c-.8 1.6-.9 3-.2 4.5.9 2.2 1 2.1 2.5-.8 1.6-3.3.8-7.5-1.4-7.3-1 0-1 .2 0 .6zM371.6 356.9c-.9 1-3.4 2.1-5.4 2.4-4.6.6-11.2 2.9-11.2 3.9 0 .5-.5.8-1.1.8-.6 0-2.7 1.3-4.6 3-4.2 3.7-3.2 3.8 2.7.3 8-4.7 13.9-7.3 16.5-7.3 1.4 0 2.5-.3 2.5-.8 0-.8 4.8-3.2 6.4-3.2.5 0 1.8.8 2.9 1.7 1.9 1.7 1.9 1.7 1.6-.2-.6-2.9-7.8-3.4-10.3-.6zM382.7 364.1c1.4 2.9 1.4 3.2-.8 5.5-2.5 2.6-1.5 3.2 1.5.9 1.1-.8 2.8-1.5 3.8-1.5s1.8-.5 1.8-1c0-.6-.9-1-1.9-1-1.2 0-2.3-1.1-3-3-.5-1.7-1.4-3-2-3-.5 0-.3 1.4.6 3.1zM374.4 367.2c-1.4 2.1-1.3 3.6.2 4.2.8.3 1.4-.1 1.4-.9s-.6-1.5-1.2-1.5c-.9 0-.8-.3.2-1 .8-.5 1.2-1.2.8-1.5-.3-.4-1 0-1.4.7z"/><path d="M357.5 368c.3.5.8 1 1.1 1 .2 0 .4-.5.4-1 0-.6-.5-1-1.1-1-.5 0-.7.4-.4 1zM369 370c0 1.4.5 3.2 1 4 .8 1.2 1 1 1-1 0-1.4-.5-3.2-1-4-.8-1.2-1-1-1 1zM353 370.2c0 .9.5 2 1 2.3 1.3.8 1.3-.5 0-2.5-.8-1.3-1-1.3-1 .2zM391.6 371.7c.3 1.1 1.4 2.3 2.5 2.6 2.6.7 2.7 7.1.2 8.7-1.7 1.1-1.7 1.1 0 .6 1-.3 2.1-.6 2.3-.6.2 0 .4-.9.4-2 0-2.2 2-2.6 3.8-.8.9.9 1.2.8 1.2-.5 0-.9-.6-1.7-1.3-1.7-.7 0-2.1-1.1-3.1-2.5s-2.3-2.5-2.9-2.5c-.5 0-1.6-.8-2.3-1.8-1.2-1.6-1.3-1.5-.8.5zM343.8 375.6c-4.5 3.8-11.8 13.6-11.8 16 0 2.3.9 1.6 2.9-2.4 1.1-2.2 4.9-6.9 8.4-10.5 7.1-7.4 7.3-8.7.5-3.1z"/><path d="M375.1 374.5c-.1 1.7-.3 1.8-1.2.5-.8-1.2-.9-.9-.5 1.2.7 3.3-.9 4.5-3.3 2.4-2.4-2.2-4.1-2-4.1.4 0 2.7 2.6 3.6 6.1 2.3 2.1-.8 3.1-.8 3.9.1 1.3 1.7 0 2.9-1.7 1.5-1-.9-1.3-.8-1.3.4 0 2 2.2 2.7 4.2 1.3 1.5-1.1 1.5-1.5.3-4-.8-1.6-1.3-3.1-1.1-3.5.2-.3 0-1.5-.5-2.6l-.8-2v2zM378.5 374c-.3.5-.1 1 .4 1 .6 0 1.1-.5 1.1-1 0-.6-.2-1-.4-1-.3 0-.8.4-1.1 1zM387 376.9c0 .6.5 1.3 1 1.6.6.3 1-.1 1-.9 0-.9-.4-1.6-1-1.6-.5 0-1 .4-1 .9zM353.6 379.9c-.6 1 8 .8 9-.2.4-.4-1.3-.7-3.9-.7-2.5 0-4.8.4-5.1.9zM399 384.6c.1 2.5.2 2.6 1.1 1.1.5-.9 1.9-1.7 2.9-1.7s2.4.8 2.9 1.7c.6 1 1.1 1.3 1.1.7 0-1.6-2-3.1-5.3-3.9-2.5-.7-2.7-.5-2.7 2.1zM415 386c0 .5.5 1 1.1 1 .5 0 .7.5.3 1.1-.5.8-1 .6-1.6-.5-1.2-2.1-2.8-2.1-2.8 0 0 1.4-.2 1.5-1.7.3s-1.6-1.2-1 .4c.5 1.4.2 2-1.3 2.4-1.8.5-1.6.8 1.3 2.7l3.2 2.2 1.7-2c1-1.2 2.2-2.7 2.8-3.4 1.2-1.4.4-5.2-1.1-5.2-.5 0-.9.4-.9 1zm-2.2 5.8c.6 1.8-1.5 1.4-2.2-.4-.4-1-.1-1.4.6-1.2.6.2 1.4 1 1.6 1.6zM387 396c0 .5.5 1 1.1 1 .5 0 .7-.5.4-1-.3-.6-.8-1-1.1-1-.2 0-.4.4-.4 1zM383 403.1c0 .5.9.9 2 .9s2-.2 2-.4-.9-.6-2-.9c-1.1-.3-2-.1-2 .4zM379.8 414.7c.7.3 1.6.2 1.9-.1.4-.3-.2-.6-1.3-.5-1.1 0-1.4.3-.6.6zM386 416.5c0 .8-.9 1.5-2.1 1.5-1.1 0-1.7.4-1.4 1 .3.5 0 1-.8 1-.9 0-1.7 1.2-1.9 2.9-.4 2.8-.4 2.9 1.9 1.4 1.3-.8 2.3-2.5 2.4-3.7 0-1.1.3-1.5.6-.9.3 1 1 1 2.5.2 1.7-.9 1.8-1.3.7-2s-.9-.9.6-.9c1.7 0 1.7-.2.5-1-2.1-1.4-3-1.2-3 .5zM371 423c0 .5.5 1 1 1 .6 0 1-.5 1-1 0-.6-.4-1-1-1-.5 0-1 .4-1 1zM359 439c-.9.6-1 1-.3 1 .6 0 1.5-.5 1.8-1 .8-1.2.4-1.2-1.5 0z"/></svg>